<svg version="1.1" id="Layer_1" xmlns="http://www.w3.org/2000/svg" xmlns:xlink="http://www.w3.org/1999/xlink" x="0px" y="0px"
	 width="96" height="96" viewBox="0 0 480 480" enable-background="new 0 0 480 480" xml:space="preserve">
<path fill="#656565" opacity="1.000000" stroke="none"
	d="
M312.000000,481.000000
	C208.417984,481.000000 104.835960,481.000000 1.000000,481.000000
	C1.000000,406.312622 1.000000,331.624969 1.354543,256.521179
	C4.599719,257.720306 7.684122,259.068268 10.346520,260.998352
	C20.386345,268.276672 30.182405,275.893372 40.270454,283.102509
	C52.264050,291.673340 64.541634,299.846405 76.550667,308.396149
	C86.115044,315.205444 95.410965,322.390533 104.915710,329.285187
	C118.996956,339.499542 133.202927,349.542114 147.272110,359.772888
	C162.679916,370.977112 177.891159,382.453796 193.380020,393.543640
	C204.983032,401.851227 216.992096,409.590302 228.634811,417.844238
	C241.749527,427.141785 254.621262,436.781311 267.663086,446.182770
	C281.105286,455.872864 294.681061,465.378998 308.043884,475.176392
	C309.827209,476.483917 310.703583,479.028381 312.000000,481.000000
z"/>
<path fill="#000000" opacity="1.000000" stroke="none"
	d="
M223.000000,0.999996
	C308.915192,1.000000 394.830414,1.000000 481.000000,1.000000
	C481.000000,62.687328 481.000000,124.375008 480.648499,186.480164
	C474.090424,182.807587 467.760010,178.891830 461.704559,174.589050
	C451.051331,167.019302 440.642853,159.105209 429.991180,151.533203
	C416.892120,142.221390 403.583557,133.204025 390.492493,123.881187
	C382.662872,118.305298 375.166290,112.262962 367.359833,106.653160
	C354.723114,97.572296 341.883759,88.773026 329.266205,79.666122
	C320.538544,73.366814 312.169464,66.568604 303.408478,60.318096
	C291.019897,51.479519 278.351196,43.034340 265.925690,34.246456
	C254.151505,25.919207 242.465012,17.462824 230.900787,8.847326
	C227.953995,6.651925 225.617111,3.637894 223.000000,0.999996
z"/>
<path fill="#060606" opacity="1.000000" stroke="none"
	d="
M222.531372,0.999996
	C225.617111,3.637894 227.953995,6.651925 230.900787,8.847326
	C242.465012,17.462824 254.151505,25.919207 265.925690,34.246456
	C278.351196,43.034340 291.019897,51.479519 303.408478,60.318096
	C312.169464,66.568604 320.538544,73.366814 329.266205,79.666122
	C341.883759,88.773026 354.723114,97.572296 367.359833,106.653160
	C375.166290,112.262962 382.662872,118.305298 390.492493,123.881187
	C403.583557,133.204025 416.892120,142.221390 429.991180,151.533203
	C440.642853,159.105209 451.051331,167.019302 461.704559,174.589050
	C467.760010,178.891830 474.090424,182.807587 480.648499,186.948822
	C481.000000,192.354935 481.000000,197.709854 480.618164,203.530487
	C478.744171,203.413040 477.039154,203.118240 475.794708,202.199570
	C468.194000,196.588455 460.798126,190.697021 453.144257,185.161423
	C440.385620,175.933868 427.463837,166.932251 414.647827,157.783569
	C398.722260,146.415146 382.815125,135.020630 366.940521,123.581200
	C361.296478,119.514023 355.864594,115.148987 350.172211,111.153008
	C337.690765,102.391174 324.985687,93.944489 312.589722,85.065102
	C294.533264,72.131065 276.737488,58.833496 258.702820,45.868584
	C240.388000,32.702232 221.883377,19.799894 203.568420,6.633737
	C201.674423,5.272187 200.505417,2.902113 199.000000,0.999999
	C206.687576,1.000000 214.375168,1.000000 222.531372,0.999996
z"/>
<path fill="#616161" opacity="1.000000" stroke="none"
	d="
M312.468536,481.000000
	C310.703583,479.028381 309.827209,476.483917 308.043884,475.176392
	C294.681061,465.378998 281.105286,455.872864 267.663086,446.182770
	C254.621262,436.781311 241.749527,427.141785 228.634811,417.844238
	C216.992096,409.590302 204.983032,401.851227 193.380020,393.543640
	C177.891159,382.453796 162.679916,370.977112 147.272110,359.772888
	C133.202927,349.542114 118.996956,339.499542 104.915710,329.285187
	C95.410965,322.390533 86.115044,315.205444 76.550667,308.396149
	C64.541634,299.846405 52.264050,291.673340 40.270454,283.102509
	C30.182405,275.893372 20.386345,268.276672 10.346520,260.998352
	C7.684122,259.068268 4.599719,257.720306 1.354543,256.052521
	C1.000000,251.975449 1.000000,247.950912 1.355916,243.516113
	C6.022234,245.841583 10.433989,248.431564 14.621700,251.343735
	C23.048887,257.204041 31.387810,263.193176 39.700581,269.215546
	C49.226276,276.116608 58.648422,283.160675 68.180710,290.052551
	C79.186089,298.009430 90.283401,305.839081 101.301025,313.779205
	C108.981895,319.314575 116.518158,325.053070 124.256271,330.506073
	C139.300171,341.107544 154.510712,351.473328 169.518845,362.124603
	C181.560333,370.670471 193.403900,379.495178 205.336914,388.193909
	C218.206528,397.575409 231.017319,407.039093 243.964142,416.312836
	C259.870331,427.706329 275.864105,438.978180 291.871979,450.228790
	C301.069153,456.692657 310.495026,462.837860 319.571289,469.464386
	C324.322388,472.933136 328.540955,477.131256 333.000000,481.000000
	C326.312347,481.000000 319.624725,481.000000 312.468536,481.000000
z"/>
<path fill="#595959" opacity="1.000000" stroke="none"
	d="
M383.000000,481.000000
	C376.978851,481.000000 370.957703,481.000000 364.412231,480.658020
	C362.597168,479.090088 361.433289,477.684845 359.995178,476.667175
	C350.380554,469.863525 340.622559,463.260223 331.072601,456.368134
	C315.336700,445.011719 299.746185,433.454071 284.046783,422.046753
	C277.485260,417.279144 270.754395,412.744659 264.188995,407.982269
	C259.027313,404.238098 254.090744,400.181091 248.893738,396.488800
	C241.603500,391.309387 234.096146,386.435577 226.806122,381.255859
	C217.350998,374.537720 208.026978,367.635284 198.630615,360.834167
	C187.475327,352.759979 176.280975,344.739594 165.144470,336.639648
	C154.031006,328.556488 142.955826,320.420471 131.887405,312.275604
	C124.418053,306.779175 116.951439,301.276947 109.592911,295.634705
	C108.710800,294.958374 108.514908,293.387054 108.467239,292.178925
	C115.958420,292.145599 122.983315,292.163910 130.020386,292.536255
	C131.001831,294.126038 131.752167,295.662567 132.973740,296.551636
	C147.740097,307.298706 162.645554,317.855499 177.366699,328.663574
	C185.642197,334.739319 193.481339,341.412903 201.800247,347.425293
	C221.416504,361.602692 241.269424,375.453003 260.857147,389.669128
	C264.325043,392.185944 266.973816,395.831360 269.604919,399.010315
	C265.736786,398.584229 263.598755,399.961365 262.710876,404.257843
	C270.008392,404.257843 277.007172,404.257843 284.019287,404.605652
	C285.477234,406.909912 286.564209,409.342590 288.427338,410.741699
	C297.181122,417.315308 306.115692,423.650665 315.046753,429.985077
	C327.878326,439.085999 340.798401,448.062347 353.611816,457.188507
	C361.963287,463.136688 370.263458,469.163177 378.423004,475.369690
	C380.293854,476.792694 381.492188,479.099762 383.000000,481.000000
z"/>
<path fill="#5C5C5C" opacity="1.000000" stroke="none"
	d="
M108.000954,292.230560
	C108.514908,293.387054 108.710800,294.958374 109.592911,295.634705
	C116.951439,301.276947 124.418053,306.779175 131.887405,312.275604
	C142.955826,320.420471 154.031006,328.556488 165.144470,336.639648
	C176.280975,344.739594 187.475327,352.759979 198.630615,360.834167
	C208.026978,367.635284 217.350998,374.537720 226.806122,381.255859
	C234.096146,386.435577 241.603500,391.309387 248.893738,396.488800
	C254.090744,400.181091 259.027313,404.238098 264.188995,407.982269
	C270.754395,412.744659 277.485260,417.279144 284.046783,422.046753
	C299.746185,433.454071 315.336700,445.011719 331.072601,456.368134
	C340.622559,463.260223 350.380554,469.863525 359.995178,476.667175
	C361.433289,477.684845 362.597168,479.090088 363.943970,480.658020
	C360.307098,481.000000 356.614166,481.000000 352.406311,480.656372
	C351.347656,479.497375 350.977386,478.443695 350.233978,477.902649
	C339.922089,470.397186 329.576233,462.937988 319.203674,455.516449
	C308.682983,447.988831 298.127625,440.509613 287.579987,433.019775
	C277.587311,425.924011 267.552399,418.887207 257.599884,411.735626
	C252.218185,407.868439 247.039474,403.718140 241.646576,399.867279
	C231.270126,392.457855 220.739792,385.263000 210.397430,377.806946
	C199.631287,370.045349 189.083984,361.979950 178.308533,354.231598
	C166.588730,345.804138 154.676086,337.645355 142.922104,329.264832
	C131.039795,320.792786 119.268982,312.164581 107.412247,303.656464
	C95.425644,295.055145 83.328682,286.606293 71.401833,277.923431
	C61.752197,270.898438 52.344994,263.540955 42.716431,256.486328
	C33.634697,249.832367 24.469139,243.287628 15.211881,236.880600
	C10.623640,233.705048 5.746457,230.946960 0.999999,228.000000
	C1.000000,223.975449 1.000000,219.950912 1.345134,215.517212
	C9.275060,220.406052 16.898165,225.650208 24.436119,231.014038
	C37.375095,240.221085 50.297337,249.452576 63.156742,258.770233
	C72.356087,265.435913 81.379562,272.344910 90.600998,278.979279
	C95.941536,282.821564 101.518730,286.334869 107.022026,290.315613
	C107.370079,291.166840 107.685516,291.698700 108.000954,292.230560
z"/>
<path fill="#0F0F0F" opacity="1.000000" stroke="none"
	d="
M140.000000,1.000001
	C145.688034,1.000000 151.376083,1.000000 157.586273,1.343421
	C159.481949,3.057070 160.700424,4.642304 162.254074,5.762753
	C172.603943,13.226765 183.081436,20.514292 193.408188,28.009706
	C204.148743,35.805458 214.699188,43.863503 225.455017,51.637711
	C237.807037,60.565647 250.278915,69.328217 262.725281,78.125038
	C275.045837,86.832939 287.364502,95.544487 299.765961,104.136169
	C302.485901,106.020538 305.780853,107.099770 308.417358,109.075172
	C317.548187,115.916466 326.505554,122.989273 335.528687,129.974274
	C341.913635,134.916992 348.155762,140.059036 354.714508,144.759201
	C366.155273,152.957901 377.859619,160.788193 389.327057,168.950500
	C402.724640,178.486618 415.987091,188.212616 429.307709,197.856842
	C442.737244,207.579910 456.124603,217.362030 469.623077,226.988388
	C473.241791,229.569031 477.198456,231.675735 481.000000,234.000000
	C481.000000,236.370560 481.000000,238.741104 480.631775,241.543976
	C479.205170,241.547806 478.017303,241.303268 477.107971,240.663116
	C464.533936,231.810898 451.914246,223.019485 439.486237,213.965439
	C432.651031,208.985870 426.336426,203.287781 419.466614,198.360458
	C405.437775,188.298416 391.216949,178.502838 377.023529,168.672089
	C371.570587,164.895248 365.700836,161.672073 360.507080,157.579681
	C350.921204,150.026505 341.810638,141.871948 332.269562,134.259277
	C327.359680,130.341751 322.017426,126.946602 316.739258,123.517509
	C313.604889,121.481194 310.215088,119.838005 306.652039,117.853622
	C298.919403,107.995247 288.437225,104.143356 276.867065,101.990540
	C276.465668,100.915138 276.254150,99.960938 275.662689,99.537613
	C265.020020,91.920563 254.318451,84.385895 243.655869,76.796539
	C229.477249,66.704544 215.320023,56.582512 201.156036,46.469955
	C184.285690,34.425148 167.366852,22.447159 150.588135,10.275991
	C146.806000,7.532442 143.516357,4.109951 140.000000,1.000001
z"/>
<path fill="#080808" opacity="1.000000" stroke="none"
	d="
M198.533875,0.999999
	C200.505417,2.902113 201.674423,5.272187 203.568420,6.633737
	C221.883377,19.799894 240.388000,32.702232 258.702820,45.868584
	C276.737488,58.833496 294.533264,72.131065 312.589722,85.065102
	C324.985687,93.944489 337.690765,102.391174 350.172211,111.153008
	C355.864594,115.148987 361.296478,119.514023 366.940521,123.581200
	C382.815125,135.020630 398.722260,146.415146 414.647827,157.783569
	C427.463837,166.932251 440.385620,175.933868 453.144257,185.161423
	C460.798126,190.697021 468.194000,196.588455 475.794708,202.199570
	C477.039154,203.118240 478.744171,203.413040 480.618164,203.998093
	C481.000000,207.030594 481.000000,210.061188 480.612549,213.543854
	C478.010895,213.023743 475.544098,212.401993 473.625977,211.019135
	C465.034088,204.824753 456.692413,198.282578 448.084320,192.111572
	C435.303741,182.949326 422.328552,174.058899 409.522461,164.931717
	C398.446075,157.037308 387.529236,148.919327 376.469666,141.000992
	C365.282745,132.991486 353.944855,125.191986 342.792603,117.135094
	C335.546295,111.900024 328.647400,106.180351 321.354736,101.013947
	C310.024841,92.987419 298.347198,85.448540 287.080292,77.337143
	C271.229034,65.925339 255.740723,54.008823 239.870560,42.624084
	C224.525894,31.616322 208.816284,21.117794 193.446976,10.143495
	C189.919968,7.625074 187.129456,4.075196 184.000000,1.000004
	C188.689255,1.000000 193.378510,1.000000 198.533875,0.999999
z"/>
<path fill="#0D0D0D" opacity="1.000000" stroke="none"
	d="
M481.000000,233.545898
	C477.198456,231.675735 473.241791,229.569031 469.623077,226.988388
	C456.124603,217.362030 442.737244,207.579910 429.307709,197.856842
	C415.987091,188.212616 402.724640,178.486618 389.327057,168.950500
	C377.859619,160.788193 366.155273,152.957901 354.714508,144.759201
	C348.155762,140.059036 341.913635,134.916992 335.528687,129.974274
	C326.505554,122.989273 317.548187,115.916466 308.417358,109.075172
	C305.780853,107.099770 302.485901,106.020538 299.765961,104.136169
	C287.364502,95.544487 275.045837,86.832939 262.725281,78.125038
	C250.278915,69.328217 237.807037,60.565647 225.455017,51.637711
	C214.699188,43.863503 204.148743,35.805458 193.408188,28.009706
	C183.081436,20.514292 172.603943,13.226765 162.254074,5.762753
	C160.700424,4.642304 159.481949,3.057070 158.054214,1.343421
	C161.692902,1.000000 165.385818,1.000000 169.596558,1.344535
	C170.723068,2.437835 171.203552,3.364935 171.959763,3.908404
	C182.021530,11.139677 192.119156,18.321054 202.213303,25.507231
	C219.366226,37.718658 236.512543,49.939449 253.682526,62.126862
	C262.612579,68.465492 271.640839,74.666946 280.524445,81.069519
	C287.251007,85.917473 293.753632,91.075966 300.474426,95.932190
	C308.225616,101.532921 316.194763,106.833618 323.910095,112.482002
	C333.938263,119.823601 343.692871,127.541504 353.775757,134.805161
	C369.095459,145.841370 384.645172,156.557724 400.005554,167.538132
	C414.170258,177.663788 428.193604,187.986923 442.318359,198.168793
	C452.270264,205.342682 462.231903,212.506165 472.313538,219.494980
	C474.972321,221.338089 478.091980,222.516418 481.000000,224.000000
	C481.000000,227.030594 481.000000,230.061188 481.000000,233.545898
z"/>
<path fill="#3F3F3F" opacity="1.000000" stroke="none"
	d="
M1.000000,114.000000
	C1.000000,105.645767 1.000000,97.291534 1.383958,88.470642
	C4.089359,89.089600 6.637910,89.856956 8.689391,91.320885
	C14.696162,95.607269 20.448835,100.249016 26.437796,104.561668
	C27.661791,105.443054 29.481371,105.497360 31.302280,106.128990
	C37.621933,116.899475 47.306381,122.386925 58.306717,125.855103
	C58.626137,127.336143 58.876911,129.077225 59.871674,129.814514
	C65.859062,134.252151 72.055145,138.406555 78.110291,142.754761
	C92.120918,152.815811 106.090965,162.933380 120.072891,173.391266
	C116.400177,178.843826 112.732040,183.933151 108.710464,188.965088
	C106.798019,187.996613 105.155075,187.202682 103.693443,186.155670
	C93.318779,178.723862 82.999855,171.214279 72.626740,163.780304
	C61.850834,156.057648 50.986954,148.457138 40.248219,140.683456
	C29.508028,132.908752 18.927830,124.912239 8.149164,117.192131
	C6.070398,115.703239 3.398356,115.042679 1.000000,114.000000
z"/>
<path fill="#0B0B0B" opacity="1.000000" stroke="none"
	d="
M481.000000,223.545898
	C478.091980,222.516418 474.972321,221.338089 472.313538,219.494980
	C462.231903,212.506165 452.270264,205.342682 442.318359,198.168793
	C428.193604,187.986923 414.170258,177.663788 400.005554,167.538132
	C384.645172,156.557724 369.095459,145.841370 353.775757,134.805161
	C343.692871,127.541504 333.938263,119.823601 323.910095,112.482002
	C316.194763,106.833618 308.225616,101.532921 300.474426,95.932190
	C293.753632,91.075966 287.251007,85.917473 280.524445,81.069519
	C271.640839,74.666946 262.612579,68.465492 253.682526,62.126862
	C236.512543,49.939449 219.366226,37.718658 202.213303,25.507231
	C192.119156,18.321054 182.021530,11.139677 171.959763,3.908404
	C171.203552,3.364935 170.723068,2.437835 170.057190,1.344535
	C174.356903,1.000000 178.713806,1.000000 183.535339,1.000004
	C187.129456,4.075196 189.919968,7.625074 193.446976,10.143495
	C208.816284,21.117794 224.525894,31.616322 239.870560,42.624084
	C255.740723,54.008823 271.229034,65.925339 287.080292,77.337143
	C298.347198,85.448540 310.024841,92.987419 321.354736,101.013947
	C328.647400,106.180351 335.546295,111.900024 342.792603,117.135094
	C353.944855,125.191986 365.282745,132.991486 376.469666,141.000992
	C387.529236,148.919327 398.446075,157.037308 409.522461,164.931717
	C422.328552,174.058899 435.303741,182.949326 448.084320,192.111572
	C456.692413,198.282578 465.034088,204.824753 473.625977,211.019135
	C475.544098,212.401993 478.010895,213.023743 480.612549,213.997955
	C481.000000,217.030594 481.000000,220.061188 481.000000,223.545898
z"/>
<path fill="#5E5E5E" opacity="1.000000" stroke="none"
	d="
M0.999999,228.444168
	C5.746457,230.946960 10.623640,233.705048 15.211881,236.880600
	C24.469139,243.287628 33.634697,249.832367 42.716431,256.486328
	C52.344994,263.540955 61.752197,270.898438 71.401833,277.923431
	C83.328682,286.606293 95.425644,295.055145 107.412247,303.656464
	C119.268982,312.164581 131.039795,320.792786 142.922104,329.264832
	C154.676086,337.645355 166.588730,345.804138 178.308533,354.231598
	C189.083984,361.979950 199.631287,370.045349 210.397430,377.806946
	C220.739792,385.263000 231.270126,392.457855 241.646576,399.867279
	C247.039474,403.718140 252.218185,407.868439 257.599884,411.735626
	C267.552399,418.887207 277.587311,425.924011 287.579987,433.019775
	C298.127625,440.509613 308.682983,447.988831 319.203674,455.516449
	C329.576233,462.937988 339.922089,470.397186 350.233978,477.902649
	C350.977386,478.443695 351.347656,479.497375 351.945679,480.656372
	C348.638702,481.000000 345.277435,481.000000 341.403900,480.656708
	C339.937195,479.214813 339.148071,477.890381 338.002960,477.052185
	C324.772339,467.367523 311.556000,457.660767 298.198669,448.152557
	C284.694061,438.539490 270.932404,429.286041 257.477600,419.605103
	C246.854538,411.961700 236.624756,403.773224 226.039825,396.074982
	C214.768784,387.877777 203.246536,380.026672 191.923370,371.899872
	C189.240173,369.974121 187.112106,367.259338 184.388199,365.408630
	C174.125443,358.435669 163.551468,351.911621 153.414505,344.764893
	C140.564575,335.705475 128.089661,326.116211 115.338326,316.914337
	C100.530357,306.228333 85.508553,295.837494 70.748695,285.086334
	C59.354443,276.786682 48.342121,267.962189 36.936420,259.678864
	C26.338404,251.982162 15.461143,244.668594 4.654021,237.263382
	C3.628811,236.560898 2.226981,236.408035 0.999999,236.000000
	C1.000000,233.629440 1.000000,231.258896 0.999999,228.444168
z"/>
<path fill="#454545" opacity="1.000000" stroke="none"
	d="
M1.000000,114.468658
	C3.398356,115.042679 6.070398,115.703239 8.149164,117.192131
	C18.927830,124.912239 29.508028,132.908752 40.248219,140.683456
	C50.986954,148.457138 61.850834,156.057648 72.626740,163.780304
	C82.999855,171.214279 93.318779,178.723862 103.693443,186.155670
	C105.155075,187.202682 106.798019,187.996613 108.567909,189.272552
	C102.188423,195.606216 94.843483,200.191101 85.956001,201.706604
	C80.314148,196.767792 74.908401,191.930298 69.098503,187.640121
	C61.790295,182.243561 54.122540,177.336227 46.664333,172.139740
	C40.457870,167.815369 34.329987,163.378220 28.101734,158.570953
	C28.860920,153.088882 29.790792,148.040222 30.435358,142.955399
	C30.593433,141.708389 29.819151,140.343170 29.473518,139.032303
	C28.413427,140.052750 26.890165,140.881638 26.374989,142.127441
	C24.356010,147.009659 22.655163,152.023422 20.502850,156.926392
	C18.151754,155.452728 16.159492,154.002686 14.110823,152.637253
	C9.756098,149.734848 5.372037,146.876450 0.999999,144.000000
	C1.000000,134.312439 1.000000,124.624878 1.000000,114.468658
z"/>
<path fill="#131313" opacity="1.000000" stroke="none"
	d="
M139.531342,1.000001
	C143.516357,4.109951 146.806000,7.532442 150.588135,10.275991
	C167.366852,22.447159 184.285690,34.425148 201.156036,46.469955
	C215.320023,56.582512 229.477249,66.704544 243.655869,76.796539
	C254.318451,84.385895 265.020020,91.920563 275.662689,99.537613
	C276.254150,99.960938 276.465668,100.915138 276.409943,101.928848
	C268.670959,102.288986 261.376099,102.342529 254.024750,102.021576
	C253.150604,100.667824 252.488327,99.478409 251.491577,98.741310
	C239.546906,89.908195 227.605652,81.068611 215.556519,72.379089
	C203.254837,63.507442 190.929031,54.662479 178.421753,46.085869
	C173.059875,42.409069 167.212585,39.440163 161.298294,35.999638
	C155.459915,29.466932 147.833832,27.407856 139.988770,25.424706
	C139.457962,24.283844 139.114822,23.261721 138.404816,22.724430
	C132.892273,18.552895 127.177612,14.638231 121.794449,10.309594
	C118.296234,7.496659 115.249191,4.122636 112.000000,0.999999
	C121.020897,1.000000 130.041794,1.000000 139.531342,1.000001
z"/>
<path fill="#5F5F5F" opacity="1.000000" stroke="none"
	d="
M0.999999,236.437500
	C2.226981,236.408035 3.628811,236.560898 4.654021,237.263382
	C15.461143,244.668594 26.338404,251.982162 36.936420,259.678864
	C48.342121,267.962189 59.354443,276.786682 70.748695,285.086334
	C85.508553,295.837494 100.530357,306.228333 115.338326,316.914337
	C128.089661,326.116211 140.564575,335.705475 153.414505,344.764893
	C163.551468,351.911621 174.125443,358.435669 184.388199,365.408630
	C187.112106,367.259338 189.240173,369.974121 191.923370,371.899872
	C203.246536,380.026672 214.768784,387.877777 226.039825,396.074982
	C236.624756,403.773224 246.854538,411.961700 257.477600,419.605103
	C270.932404,429.286041 284.694061,438.539490 298.198669,448.152557
	C311.556000,457.660767 324.772339,467.367523 338.002960,477.052185
	C339.148071,477.890381 339.937195,479.214813 340.945831,480.656708
	C338.629425,481.000000 336.258881,481.000000 333.444153,481.000000
	C328.540955,477.131256 324.322388,472.933136 319.571289,469.464386
	C310.495026,462.837860 301.069153,456.692657 291.871979,450.228790
	C275.864105,438.978180 259.870331,427.706329 243.964142,416.312836
	C231.017319,407.039093 218.206528,397.575409 205.336914,388.193909
	C193.403900,379.495178 181.560333,370.670471 169.518845,362.124603
	C154.510712,351.473328 139.300171,341.107544 124.256271,330.506073
	C116.518158,325.053070 108.981895,319.314575 101.301025,313.779205
	C90.283401,305.839081 79.186089,298.009430 68.180710,290.052551
	C58.648422,283.160675 49.226276,276.116608 39.700581,269.215546
	C31.387810,263.193176 23.048887,257.204041 14.621700,251.343735
	C10.433989,248.431564 6.022234,245.841583 1.355916,243.052917
	C1.000000,240.958328 1.000000,238.916672 0.999999,236.437500
z"/>
<path fill="#525252" opacity="1.000000" stroke="none"
	d="
M432.000000,481.000000
	C422.645782,481.000000 413.291534,481.000000 403.416077,480.658905
	C400.734192,478.094086 398.844452,475.492798 396.364807,473.713715
	C386.970123,466.973145 377.293579,460.625305 367.900940,453.882050
	C361.316254,449.154724 355.155426,443.836914 348.569489,439.111450
	C334.177429,428.784973 319.600739,418.715790 305.206360,408.392456
	C303.733826,407.336426 302.985809,405.270081 302.247986,403.440552
	C311.398590,403.181122 320.202820,403.153687 329.065948,403.461426
	C330.043823,404.949066 330.764038,406.375671 331.914001,407.209808
	C339.682831,412.844971 347.543915,418.352905 355.372681,423.905518
	C366.062317,431.487274 376.743988,439.080292 387.439728,446.653412
	C398.134735,454.226044 408.978943,461.597595 419.481720,469.427521
	C424.012299,472.805054 427.848419,477.114105 432.000000,481.000000
z"/>
<path fill="#4D4D4D" opacity="1.000000" stroke="none"
	d="
M432.468658,481.000000
	C427.848419,477.114105 424.012299,472.805054 419.481720,469.427521
	C408.978943,461.597595 398.134735,454.226044 387.439728,446.653412
	C376.743988,439.080292 366.062317,431.487274 355.372681,423.905518
	C347.543915,418.352905 339.682831,412.844971 331.914001,407.209808
	C330.764038,406.375671 330.043823,404.949066 329.507690,403.404236
	C334.975037,403.296509 340.061554,403.549072 345.143402,403.875122
	C349.762939,404.171509 354.377319,404.547821 359.062012,405.227722
	C360.196259,406.574951 361.161224,407.725037 362.344025,408.570282
	C376.778473,418.885193 391.269440,429.121002 405.696655,439.445984
	C423.078827,451.885742 440.433167,464.364716 457.731964,476.919800
	C459.092041,477.906860 459.923096,479.622803 461.000000,481.000000
	C451.645782,481.000000 442.291534,481.000000 432.468658,481.000000
z"/>
<path fill="#585858" opacity="1.000000" stroke="none"
	d="
M106.989418,289.996246
	C101.518730,286.334869 95.941536,282.821564 90.600998,278.979279
	C81.379562,272.344910 72.356087,265.435913 63.156742,258.770233
	C50.297337,249.452576 37.375095,240.221085 24.436119,231.014038
	C16.898165,225.650208 9.275060,220.406052 1.345134,215.054031
	C1.000000,206.645767 1.000000,198.291534 1.366668,189.468048
	C2.466670,188.997162 3.200005,188.995560 3.952750,189.438141
	C4.328790,192.793289 3.928289,196.085541 5.169851,198.550842
	C11.365435,210.853012 19.471544,220.909225 35.072308,220.662674
	C36.380081,220.641998 37.692608,220.922241 39.080162,221.387512
	C39.444485,222.110519 39.653465,222.615082 40.029942,222.891571
	C53.766544,232.979919 67.440788,243.155716 81.290886,253.086212
	C94.864990,262.818817 108.663651,272.238342 122.230438,281.980957
	C123.621941,282.980225 124.101730,285.249023 124.539993,286.981659
	C120.438484,287.015320 116.754776,286.640228 113.182114,287.109863
	C111.028618,287.392944 109.047821,288.989777 106.989418,289.996246
z"/>
<path fill="#484948" opacity="1.000000" stroke="none"
	d="
M461.469055,481.000000
	C459.923096,479.622803 459.092041,477.906860 457.731964,476.919800
	C440.433167,464.364716 423.078827,451.885742 405.696655,439.445984
	C391.269440,429.121002 376.778473,418.885193 362.344025,408.570282
	C361.161224,407.725037 360.196259,406.574951 359.507080,405.187714
	C368.585297,405.462952 377.286438,406.117004 386.048798,407.116272
	C386.617401,408.091278 387.018311,408.865631 387.647949,409.329468
	C399.739471,418.235992 411.811768,427.169861 423.982330,435.967560
	C439.390594,447.105652 454.860321,458.159271 470.357605,469.173248
	C473.789062,471.612030 477.446594,473.732788 481.000000,476.000000
	C481.000000,477.636871 481.000000,479.273712 481.000000,481.000000
	C474.646210,481.000000 468.292145,481.000000 461.469055,481.000000
z"/>
<path fill="#252626" opacity="1.000000" stroke="none"
	d="
M481.000000,319.000000
	C481.000000,328.354218 481.000000,337.708466 480.649994,347.480530
	C478.515991,346.748505 476.723724,345.611206 474.949463,344.446442
	C468.636414,340.302094 462.329498,336.148468 455.798553,331.738647
	C442.785034,309.419250 421.795074,300.958374 397.871124,297.313843
	C407.520905,291.880615 416.751251,286.683563 426.352264,281.659515
	C438.890167,290.727020 450.940094,299.788757 463.277405,308.440765
	C468.891968,312.378235 475.074890,315.505310 481.000000,319.000000
z"/>
<path fill="#565656" opacity="1.000000" stroke="none"
	d="
M301.901611,403.672546
	C302.985809,405.270081 303.733826,407.336426 305.206360,408.392456
	C319.600739,418.715790 334.177429,428.784973 348.569489,439.111450
	C355.155426,443.836914 361.316254,449.154724 367.900940,453.882050
	C377.293579,460.625305 386.970123,466.973145 396.364807,473.713715
	C398.844452,475.492798 400.734192,478.094086 402.947418,480.658905
	C396.645599,481.000000 390.291199,481.000000 383.468384,481.000000
	C381.492188,479.099762 380.293854,476.792694 378.423004,475.369690
	C370.263458,469.163177 361.963287,463.136688 353.611816,457.188507
	C340.798401,448.062347 327.878326,439.085999 315.046753,429.985077
	C306.115692,423.650665 297.181122,417.315308 288.427338,410.741699
	C286.564209,409.342590 285.477234,406.909912 284.482605,404.536285
	C290.588928,403.970276 296.245270,403.821411 301.901611,403.672546
z"/>
<path fill="#111111" opacity="1.000000" stroke="none"
	d="
M306.940125,118.018066
	C310.215088,119.838005 313.604889,121.481194 316.739258,123.517509
	C322.017426,126.946602 327.359680,130.341751 332.269562,134.259277
	C341.810638,141.871948 350.921204,150.026505 360.507080,157.579681
	C365.700836,161.672073 371.570587,164.895248 377.023529,168.672089
	C391.216949,178.502838 405.437775,188.298416 419.466614,198.360458
	C426.336426,203.287781 432.651031,208.985870 439.486237,213.965439
	C451.914246,223.019485 464.533936,231.810898 477.107971,240.663116
	C478.017303,241.303268 479.205170,241.547806 480.631775,241.988159
	C481.000000,246.024551 481.000000,250.049088 480.655884,254.483032
	C475.654510,251.543213 471.069031,248.087616 466.316711,244.879227
	C462.679138,242.423431 458.830719,240.279953 454.938690,237.652390
	C453.802795,231.409393 450.826965,226.560959 445.653778,223.788315
	C441.063660,221.328201 435.906250,219.926651 430.948944,217.711670
	C429.744843,215.997986 428.790344,214.367828 427.399658,213.312393
	C423.312561,210.210510 419.037292,207.357819 414.862610,204.369949
	C400.854767,194.344391 386.723053,184.484985 372.896698,174.214737
	C359.470947,164.242065 346.447113,153.729721 333.080688,143.675217
	C326.246033,138.534073 319.047729,133.876373 311.800049,128.707611
	C310.037598,124.949387 308.488861,121.483727 306.940125,118.018066
z"/>
<path fill="#272727" opacity="1.000000" stroke="none"
	d="
M1.000000,10.000000
	C1.000000,7.041664 1.000000,4.083329 1.000000,1.000000
	C8.353830,1.000000 15.708179,1.000000 23.544170,1.370024
	C24.411224,2.618318 24.548513,3.842582 25.218960,4.323369
	C36.733471,12.580585 48.387104,20.645315 59.841930,28.983463
	C64.144875,32.115643 68.019783,35.835857 71.880188,39.553440
	C66.851059,42.573830 62.031586,45.328762 56.849541,48.019852
	C55.291779,47.393204 53.962360,47.011421 52.921890,46.239941
	C40.811546,37.260483 28.853497,28.070984 16.612938,19.274090
	C11.716098,15.754889 6.222150,13.066543 1.000000,10.000000
z"/>
<path fill="#1F1F1F" opacity="1.000000" stroke="none"
	d="
M481.000000,318.531372
	C475.074890,315.505310 468.891968,312.378235 463.277405,308.440765
	C450.940094,299.788757 438.890167,290.727020 426.620880,281.418701
	C431.716949,276.860809 436.915039,272.716766 442.482941,268.734406
	C443.863525,269.458069 444.944275,269.923431 445.874176,270.597076
	C455.078339,277.264282 464.194824,284.055054 473.489532,290.592743
	C475.698853,292.146698 478.481232,292.885986 481.000000,294.000000
	C481.000000,302.020905 481.000000,310.041809 481.000000,318.531372
z"/>
<path fill="#454545" opacity="1.000000" stroke="none"
	d="
M481.000000,475.536804
	C477.446594,473.732788 473.789062,471.612030 470.357605,469.173248
	C454.860321,458.159271 439.390594,447.105652 423.982330,435.967560
	C411.811768,427.169861 399.739471,418.235992 387.647949,409.329468
	C387.018311,408.865631 386.617401,408.091278 386.438904,407.016937
	C390.554779,405.893585 394.341797,405.214783 398.485229,404.709930
	C411.979736,414.437592 425.150299,423.946960 438.244629,433.560181
	C447.326477,440.227661 456.175751,447.219025 465.378510,453.711945
	C470.313446,457.193787 475.775696,459.928284 481.000000,463.000000
	C481.000000,467.024536 481.000000,471.049103 481.000000,475.536804
z"/>
<path fill="#3C3D3D" opacity="1.000000" stroke="none"
	d="
M481.000000,423.000000
	C481.000000,428.022095 481.000000,433.044189 480.643982,438.480133
	C477.638428,437.530457 474.780640,436.460907 472.373383,434.755371
	C457.632843,424.311676 442.928589,413.813507 428.364380,403.126160
	C424.313477,400.153564 420.777954,396.478607 417.291504,392.934509
	C421.374084,390.128082 425.171112,387.513000 429.026001,385.247833
	C432.263214,388.121094 435.378845,390.730011 438.633118,393.152710
	C451.635712,402.832672 464.667786,412.473389 477.742462,422.055603
	C478.598969,422.683319 479.903748,422.699402 481.000000,423.000000
z"/>
<path fill="#383838" opacity="1.000000" stroke="none"
	d="
M481.000000,422.531616
	C479.903748,422.699402 478.598969,422.683319 477.742462,422.055603
	C464.667786,412.473389 451.635712,402.832672 438.633118,393.152710
	C435.378845,390.730011 432.263214,388.121094 429.188385,384.953735
	C433.509430,381.534576 437.725922,378.759399 442.256622,376.125580
	C451.973480,382.934509 461.355469,389.631561 470.789886,396.253845
	C474.127319,398.596466 477.592926,400.756592 481.000000,403.000000
	C481.000000,409.354401 481.000000,415.708801 481.000000,422.531616
z"/>
<path fill="#222222" opacity="1.000000" stroke="none"
	d="
M72.089836,39.287983
	C68.019783,35.835857 64.144875,32.115643 59.841930,28.983463
	C48.387104,20.645315 36.733471,12.580585 25.218960,4.323369
	C24.548513,3.842582 24.411224,2.618318 24.012909,1.370024
	C32.354233,1.000000 40.708466,1.000000 49.586174,1.344947
	C50.530220,2.391555 50.786255,3.321937 51.396027,3.760595
	C60.661816,10.426236 70.082672,16.882215 79.217842,23.720428
	C82.539291,26.206730 85.205177,29.568808 87.887299,32.722836
	C82.432907,35.038902 77.261368,37.163441 72.089836,39.287983
z"/>
<path fill="#424242" opacity="1.000000" stroke="none"
	d="
M481.000000,462.539368
	C475.775696,459.928284 470.313446,457.193787 465.378510,453.711945
	C456.175751,447.219025 447.326477,440.227661 438.244629,433.560181
	C425.150299,423.946960 411.979736,414.437592 398.794922,404.498657
	C402.148834,402.355652 405.549500,400.597870 408.975281,399.208099
	C409.841461,400.722015 410.465851,402.162018 411.558228,402.966858
	C419.561310,408.863586 427.696411,414.580780 435.716034,420.455444
	C446.383484,428.269775 456.862366,436.348480 467.675842,443.953003
	C471.752869,446.820129 476.537781,448.680634 481.000000,451.000000
	C481.000000,454.692902 481.000000,458.385834 481.000000,462.539368
z"/>
<path fill="#2B2C2C" opacity="1.000000" stroke="none"
	d="
M1.000000,10.467606
	C6.222150,13.066543 11.716098,15.754889 16.612938,19.274090
	C28.853497,28.070984 40.811546,37.260483 52.921890,46.239941
	C53.962360,47.011421 55.291779,47.393204 56.676971,48.315468
	C53.547024,51.438381 50.227081,54.201836 46.611313,57.075867
	C45.679070,57.729912 45.042648,58.273376 44.239025,58.461082
	C43.095985,56.992409 42.283302,55.657055 41.118065,54.802341
	C33.003803,48.850494 24.880209,42.906956 16.629017,37.147850
	C11.538363,33.594707 6.217506,30.371391 1.000000,27.000000
	C1.000000,21.645071 1.000000,16.290142 1.000000,10.467606
z"/>
<path fill="#1E1E1E" opacity="1.000000" stroke="none"
	d="
M88.170158,32.531311
	C85.205177,29.568808 82.539291,26.206730 79.217842,23.720428
	C70.082672,16.882215 60.661816,10.426236 51.396027,3.760595
	C50.786255,3.321937 50.530220,2.391555 50.054825,1.344947
	C60.020893,1.000000 70.041786,1.000000 80.585251,1.342662
	C82.054176,2.780018 82.836929,4.096861 83.973213,4.933634
	C91.819115,10.711452 99.785027,16.327124 107.593407,22.154318
	C109.057037,23.246590 109.985397,25.056107 110.827576,26.696669
	C103.052979,28.749571 95.611565,30.640442 88.170158,32.531311
z"/>
<path fill="#3F3F3F" opacity="1.000000" stroke="none"
	d="
M481.000000,450.539368
	C476.537781,448.680634 471.752869,446.820129 467.675842,443.953003
	C456.862366,436.348480 446.383484,428.269775 435.716034,420.455444
	C427.696411,414.580780 419.561310,408.863586 411.558228,402.966858
	C410.465851,402.162018 409.841461,400.722015 409.152069,398.930542
	C411.871155,396.565277 414.438568,394.845581 417.005981,393.125885
	C420.777954,396.478607 424.313477,400.153564 428.364380,403.126160
	C442.928589,413.813507 457.632843,424.311676 472.373383,434.755371
	C474.780640,436.460907 477.638428,437.530457 480.643982,438.946991
	C481.000000,442.692902 481.000000,446.385834 481.000000,450.539368
z"/>
<path fill="#323232" opacity="1.000000" stroke="none"
	d="
M481.000000,402.531342
	C477.592926,400.756592 474.127319,398.596466 470.789886,396.253845
	C461.355469,389.631561 451.973480,382.934509 442.445435,375.848083
	C447.011627,369.894348 451.703217,364.359436 456.739471,358.963379
	C463.415009,363.749908 469.701111,368.460907 476.111908,372.995605
	C477.512878,373.986603 479.358917,374.348419 481.000000,375.000000
	C481.000000,384.020905 481.000000,393.041779 481.000000,402.531342
z"/>
<path fill="#191919" opacity="1.000000" stroke="none"
	d="
M481.000000,293.531372
	C478.481232,292.885986 475.698853,292.146698 473.489532,290.592743
	C464.194824,284.055054 455.078339,277.264282 445.874176,270.597076
	C444.944275,269.923431 443.863525,269.458069 442.677734,268.438354
	C446.217194,262.619629 449.931671,257.258636 453.971497,252.045380
	C458.166321,255.221237 461.863129,258.510986 465.950226,261.209564
	C470.791077,264.405853 475.968475,267.092499 481.000000,270.000000
	C481.000000,277.687592 481.000000,285.375153 481.000000,293.531372
z"/>
<path fill="#181818" opacity="1.000000" stroke="none"
	d="
M111.160774,26.534637
	C109.985397,25.056107 109.057037,23.246590 107.593407,22.154318
	C99.785027,16.327124 91.819115,10.711452 83.973213,4.933634
	C82.836929,4.096861 82.054176,2.780018 81.053909,1.342662
	C91.020897,1.000000 101.041786,1.000000 111.531342,0.999999
	C115.249191,4.122636 118.296234,7.496659 121.794449,10.309594
	C127.177612,14.638231 132.892273,18.552895 138.404816,22.724430
	C139.114822,23.261721 139.457962,24.283844 139.565765,25.460384
	C129.827271,26.071144 120.494019,26.302891 111.160774,26.534637
z"/>
<path fill="#303030" opacity="1.000000" stroke="none"
	d="
M1.000000,27.467606
	C6.217506,30.371391 11.538363,33.594707 16.629017,37.147850
	C24.880209,42.906956 33.003803,48.850494 41.118065,54.802341
	C42.283302,55.657055 43.095985,56.992409 44.078327,58.729897
	C41.237877,62.604797 38.390926,65.855133 35.348263,68.747726
	C30.442419,64.772766 25.837637,61.006981 20.996443,57.574638
	C14.425729,52.916092 7.674057,48.512783 1.000000,44.000000
	C1.000000,38.645069 1.000000,33.290142 1.000000,27.467606
z"/>
<path fill="#2B2C2C" opacity="1.000000" stroke="none"
	d="
M481.000000,374.531342
	C479.358917,374.348419 477.512878,373.986603 476.111908,372.995605
	C469.701111,368.460907 463.415009,363.749908 456.863556,358.575073
	C460.057129,349.278137 459.032135,340.614502 456.020264,331.998352
	C462.329498,336.148468 468.636414,340.302094 474.949463,344.446442
	C476.723724,345.611206 478.515991,346.748505 480.649994,347.949219
	C481.000000,356.687561 481.000000,365.375122 481.000000,374.531342
z"/>
<path fill="#353636" opacity="1.000000" stroke="none"
	d="
M1.000000,44.468533
	C7.674057,48.512783 14.425729,52.916092 20.996443,57.574638
	C25.837637,61.006981 30.442419,64.772766 35.234020,69.044769
	C33.200310,74.132637 31.085125,78.565704 28.627663,82.943947
	C22.738501,78.989189 17.260138,74.986420 11.619145,71.227715
	C8.209866,68.956055 4.548242,67.063110 1.000001,65.000000
	C1.000000,58.312355 1.000000,51.624710 1.000000,44.468533
z"/>
<path fill="#393939" opacity="1.000000" stroke="none"
	d="
M1.000001,65.468620
	C4.548242,67.063110 8.209866,68.956055 11.619145,71.227715
	C17.260138,74.986420 22.738501,78.989189 28.662334,83.364388
	C27.111431,91.437050 27.784376,98.800522 31.026403,105.932922
	C29.481371,105.497360 27.661791,105.443054 26.437796,104.561668
	C20.448835,100.249016 14.696162,95.607269 8.689391,91.320885
	C6.637910,89.856956 4.089359,89.089600 1.383958,88.001999
	C1.000000,80.645744 1.000000,73.291496 1.000001,65.468620
z"/>
<path fill="#4E4E4E" opacity="1.000000" stroke="none"
	d="
M3.933339,188.993958
	C3.200005,188.995560 2.466670,188.997162 1.366668,188.999390
	C1.000000,174.312439 1.000000,159.624878 0.999999,144.468658
	C5.372037,146.876450 9.756098,149.734848 14.110823,152.637253
	C16.159492,154.002686 18.151754,155.452728 20.486786,157.289124
	C16.957998,169.099243 11.128963,179.415131 3.933339,188.993958
z"/>
<path fill="#151515" opacity="1.000000" stroke="none"
	d="
M481.000000,269.533875
	C475.968475,267.092499 470.791077,264.405853 465.950226,261.209564
	C461.863129,258.510986 458.166321,255.221237 454.037170,251.627716
	C454.210388,246.707382 454.643219,242.352463 455.076080,237.997528
	C458.830719,240.279953 462.679138,242.423431 466.316711,244.879227
	C471.069031,248.087616 475.654510,251.543213 480.655884,254.946213
	C481.000000,259.689240 481.000000,264.378510 481.000000,269.533875
z"/>
<path fill="#5DDAA6" opacity="1.000000" stroke="none"
	d="
M454.938690,237.652390
	C454.643219,242.352463 454.210388,246.707382 453.711853,251.479980
	C449.931671,257.258636 446.217194,262.619629 442.307922,268.276672
	C436.915039,272.716766 431.716949,276.860809 426.250214,281.245667
	C416.751251,286.683563 407.520905,291.880615 397.871124,297.313843
	C421.795074,300.958374 442.785034,309.419250 455.798553,331.738647
	C459.032135,340.614502 460.057129,349.278137 456.518890,358.436218
	C451.703217,364.359436 447.011627,369.894348 442.131226,375.706757
	C437.725922,378.759399 433.509430,381.534576 429.130554,384.603821
	C425.171112,387.513000 421.374084,390.128082 417.291504,392.934540
	C414.438568,394.845581 411.871155,396.565277 409.126953,398.562561
	C405.549500,400.597870 402.148834,402.355652 398.438477,404.324707
	C394.341797,405.214783 390.554779,405.893585 386.377686,406.671692
	C377.286438,406.117004 368.585297,405.462952 359.439056,404.848938
	C354.377319,404.547821 349.762939,404.171509 345.143402,403.875122
	C340.061554,403.549072 334.975037,403.296509 329.448792,403.069122
	C320.202820,403.153687 311.398590,403.181122 302.247986,403.440552
	C296.245270,403.821411 290.588928,403.970276 284.469269,404.188477
	C277.007172,404.257843 270.008392,404.257843 262.710876,404.257843
	C263.598755,399.961365 265.736786,398.584229 270.047058,399.085632
	C278.256195,399.112854 285.627289,399.119476 293.431458,399.164185
	C299.232483,399.171600 304.201141,398.035858 308.427216,393.869934
	C310.117706,390.794983 311.518951,387.894745 313.106628,384.676575
	C314.561920,380.242859 315.830811,376.127045 317.315796,371.721375
	C319.103180,365.987701 320.674469,360.543823 322.464294,354.802856
	C324.074738,349.001953 325.466614,343.498169 326.999512,337.630554
	C328.833496,329.874634 330.526398,322.482544 332.435730,314.755920
	C333.871704,307.988220 335.091217,301.555084 336.512238,294.778564
	C337.662964,288.668457 338.612183,282.901703 339.688995,276.771149
	C340.585052,269.940308 341.353546,263.473267 342.267639,256.614838
	C342.919312,251.447098 343.735291,246.679611 343.873047,241.892639
	C344.278015,227.818787 340.697632,224.100296 326.683777,223.865784
	C317.831757,223.717651 308.975250,223.838150 300.120758,223.838150
	C299.912994,222.927643 299.705231,222.017151 299.497467,221.106644
	C301.665924,220.035156 303.834412,218.963669 306.467285,217.957016
	C316.626190,218.268661 326.320679,218.515457 336.476318,218.845413
	C348.626038,218.925537 360.314606,218.922485 372.455353,218.980240
	C382.272339,218.340393 391.637115,217.639771 401.463654,217.021729
	C407.617310,217.020493 413.309235,216.936707 419.422302,216.947800
	C423.562012,217.381058 427.280640,217.719437 430.999237,218.057816
	C435.906250,219.926651 441.063660,221.328201 445.653778,223.788315
	C450.826965,226.560959 453.802795,231.409393 454.938690,237.652390
M399.854736,291.315063
	C403.734253,287.587708 407.613770,283.860352 412.089996,279.710815
	C415.265045,273.799133 418.440125,267.887421 421.928680,261.183319
	C422.374451,257.605133 422.615570,253.986893 423.306610,250.456726
	C424.982880,241.893677 422.490295,234.615097 416.138336,228.996811
	C405.215668,219.335709 390.148529,221.875046 379.696045,235.087265
	C377.403778,240.710373 375.111511,246.333481 372.337646,252.511169
	C371.015747,257.618774 369.693848,262.726410 368.082214,268.492157
	C366.547333,275.281677 365.012482,282.071198 363.167419,289.524628
	C361.672852,296.647858 360.178284,303.771057 358.268158,311.537628
	C356.952728,318.668884 355.637299,325.800140 354.079071,333.632599
	C353.023773,342.424286 351.968475,351.215973 350.654968,360.796417
	C350.460083,363.781860 350.111450,366.766510 350.096771,369.752838
	C350.030579,383.204315 356.010437,391.599609 368.812256,395.242859
	C379.934448,398.408142 391.142395,398.412994 402.902313,394.302765
	C410.832306,391.425903 417.201782,386.662689 421.755005,378.627869
	C425.471832,371.932892 427.771332,364.869751 427.580688,356.438568
	C423.155914,326.364227 407.494354,307.192993 375.083832,303.158173
	C376.892456,302.075806 378.070831,301.370636 380.031952,300.554077
	C386.428436,297.584045 392.824921,294.614014 399.854736,291.315063
z"/>
<path fill="#555656" opacity="1.000000" stroke="none"
	d="
M292.998413,399.126099
	C285.627289,399.119476 278.256195,399.112854 270.442932,399.030945
	C266.973816,395.831360 264.325043,392.185944 260.857147,389.669128
	C241.269424,375.453003 221.416504,361.602692 201.800247,347.425293
	C193.481339,341.412903 185.642197,334.739319 177.366699,328.663574
	C162.645554,317.855499 147.740097,307.298706 132.973740,296.551636
	C131.752167,295.662567 131.001831,294.126038 130.485413,292.481415
	C137.628586,291.893036 144.318893,291.713593 151.036911,291.849823
	C151.369934,292.733002 151.532288,293.494415 152.001160,293.839966
	C170.645416,307.580963 189.308304,321.296753 207.989410,334.987640
	C218.792145,342.904633 229.653839,350.741333 240.443359,358.676208
	C247.114822,363.582489 253.601044,368.745361 260.348785,373.542175
	C269.913422,380.341309 279.711975,386.812683 289.236420,393.666138
	C290.925476,394.881531 291.766022,397.276062 292.998413,399.126099
z"/>
<path fill="#57AAB7" opacity="1.000000" stroke="none"
	d="
M151.009201,291.534119
	C144.318893,291.713593 137.628586,291.893036 130.473236,292.127380
	C122.983315,292.163910 115.958420,292.145599 108.467239,292.178925
	C107.685516,291.698700 107.370079,291.166840 107.022026,290.315613
	C109.047821,288.989777 111.028618,287.392944 113.182114,287.109863
	C116.754776,286.640228 120.438484,287.015320 125.005501,287.033508
	C132.076263,286.771973 138.216934,286.511536 144.716858,286.238831
	C147.105774,285.596710 149.135452,284.966858 151.478516,284.204651
	C153.483078,282.047333 155.174255,280.022339 157.070251,277.705627
	C158.462265,274.272888 159.649445,271.131866 160.930206,267.617645
	C162.650864,261.827484 164.277924,256.410522 165.990479,250.619888
	C167.402466,246.165604 168.728973,242.085022 170.411865,238.060028
	C175.044907,240.775482 179.325012,243.429840 183.597290,246.096680
	C188.346802,249.061401 193.089218,252.037537 197.889969,255.455261
	C197.998657,258.600220 198.052094,261.298645 198.042389,264.436432
	C197.893616,277.819885 202.262009,284.863861 212.288086,286.442627
	C218.431335,287.409943 224.765396,287.165588 231.426346,287.563721
	C235.455124,287.662048 239.071320,287.662048 244.180679,287.662048
	C241.926453,289.976715 240.462158,291.480225 238.531738,292.929138
	C227.047485,292.623413 216.029358,292.372284 204.545074,292.059265
	C197.048630,291.959442 190.018341,291.921448 182.528046,291.833344
	C176.380966,291.650146 170.693893,291.517059 164.548950,291.302216
	C159.730453,291.325012 155.369827,291.429565 151.009201,291.534119
z"/>
<path fill="#4497A5" opacity="1.000000" stroke="none"
	d="
M306.652039,117.853622
	C308.488861,121.483727 310.037598,124.949387 311.770508,129.157104
	C312.025574,132.598450 312.096436,135.297760 312.103149,138.444550
	C311.840027,141.877914 311.641083,144.863770 311.307190,148.176895
	C309.504517,152.760971 307.836761,157.017776 305.983856,160.956116
	C299.429474,156.045761 293.163300,151.299667 286.640381,146.937515
	C284.014923,145.181763 280.826569,144.267731 277.854218,142.524124
	C277.238800,137.355972 276.694641,132.630280 276.081970,127.913475
	C274.743408,117.608192 268.268982,110.713531 257.952576,109.889496
	C252.959381,109.490662 247.826859,110.836395 242.400757,111.219124
	C240.321106,109.188492 238.598083,107.331001 237.177032,105.334724
	C238.986221,104.804390 240.493439,104.412857 242.423035,104.051224
	C246.590668,103.519432 250.335938,102.957748 254.081207,102.396065
	C261.376099,102.342529 268.670959,102.288986 276.422974,102.297142
	C288.437225,104.143356 298.919403,107.995247 306.652039,117.853622
z"/>
<path fill="#EBEBEB" opacity="1.000000" stroke="none"
	d="
M3.952750,189.438141
	C11.128963,179.415131 16.957998,169.099243 20.820061,157.351074
	C22.655163,152.023422 24.356010,147.009659 26.374989,142.127441
	C26.890165,140.881638 28.413427,140.052750 29.473518,139.032303
	C29.819151,140.343170 30.593433,141.708389 30.435358,142.955399
	C29.790792,148.040222 28.860920,153.088882 28.027641,159.016998
	C27.227652,198.224823 60.584747,210.237930 86.012672,202.050934
	C94.843483,200.191101 102.188423,195.606216 108.921341,189.329956
	C112.732040,183.933151 116.400177,178.843826 120.340744,173.130035
	C121.808891,167.128159 123.521484,161.804810 124.090904,156.361847
	C125.216545,145.602097 120.896324,138.104492 111.298157,133.908005
	C107.089462,132.067886 102.520355,130.647583 97.981026,130.044769
	C84.884460,128.305557 71.719795,127.079094 58.581879,125.651268
	C47.306381,122.386925 37.621933,116.899475 31.302280,106.128990
	C27.784376,98.800522 27.111431,91.437050 29.004608,83.419212
	C31.085125,78.565704 33.200310,74.132637 35.429737,69.402519
	C38.390926,65.855133 41.237877,62.604797 44.245525,59.085655
	C45.042648,58.273376 45.679070,57.729912 46.960506,57.134182
	C48.682556,57.830063 49.722252,58.640205 50.843250,59.315353
	C55.135963,61.900723 59.454796,64.442726 63.764378,67.310135
	C63.581997,68.410728 63.399120,69.202095 63.063957,70.370148
	C58.207092,88.940880 62.937778,98.382553 80.998955,102.933846
	C91.344406,105.540825 102.314697,105.668198 113.405792,107.019302
	C116.205231,107.421516 118.602562,107.716354 121.077164,108.344093
	C125.132324,112.233330 128.886688,116.088104 133.141403,119.274841
	C139.259659,123.857353 145.705933,128.008865 152.106628,132.200104
	C153.110794,132.857651 154.613708,132.753555 155.970108,133.328888
	C156.114334,134.101334 156.174454,134.546539 156.135406,135.407593
	C154.621811,141.852737 153.207352,147.882004 151.533691,154.135803
	C147.918350,160.240341 144.562256,166.120316 140.926361,172.200668
	C137.483246,176.098114 134.319946,179.795212 130.892303,183.665070
	C126.412682,187.540588 122.197403,191.243332 117.643082,195.036957
	C111.287895,198.880020 105.271751,202.632187 98.916084,206.446350
	C93.324150,208.831573 88.071739,211.154785 82.440567,213.565094
	C78.042320,214.822876 74.022827,215.993561 69.643951,217.170044
	C67.486603,217.667892 65.688644,218.159943 63.470100,218.688202
	C60.033825,219.191330 57.018139,219.658249 53.557877,220.068695
	C48.409843,220.362396 43.706383,220.712555 39.002926,221.062698
	C37.692608,220.922241 36.380081,220.641998 35.072308,220.662674
	C19.471544,220.909225 11.365435,210.853012 5.169851,198.550842
	C3.928289,196.085541 4.328790,192.793289 3.952750,189.438141
z"/>
<path fill="#393939" opacity="1.000000" stroke="none"
	d="
M58.306717,125.855103
	C71.719795,127.079094 84.884460,128.305557 97.981026,130.044769
	C102.520355,130.647583 107.089462,132.067886 111.298157,133.908005
	C120.896324,138.104492 125.216545,145.602097 124.090904,156.361847
	C123.521484,161.804810 121.808891,167.128159 120.345314,172.766815
	C106.090965,162.933380 92.120918,152.815811 78.110291,142.754761
	C72.055145,138.406555 65.859062,134.252151 59.871674,129.814514
	C58.876911,129.077225 58.626137,127.336143 58.306717,125.855103
z"/>
<path fill="#4D4D4D" opacity="1.000000" stroke="none"
	d="
M85.956001,201.706604
	C60.584747,210.237930 27.227652,198.224823 28.093204,159.437103
	C34.329987,163.378220 40.457870,167.815369 46.664333,172.139740
	C54.122540,177.336227 61.790295,182.243561 69.098503,187.640121
	C74.908401,191.930298 80.314148,196.767792 85.956001,201.706604
z"/>
<path fill="#E9E9E9" opacity="1.000000" stroke="none"
	d="
M63.763882,67.000908
	C59.454796,64.442726 55.135963,61.900723 50.843250,59.315353
	C49.722252,58.640205 48.682556,57.830063 47.256332,57.023602
	C50.227081,54.201836 53.547024,51.438381 57.039536,48.379311
	C62.031586,45.328762 66.851059,42.573830 71.880188,39.553440
	C77.261368,37.163441 82.432907,35.038902 87.887299,32.722836
	C95.611565,30.640442 103.052979,28.749571 110.827576,26.696669
	C120.494019,26.302891 129.827271,26.071144 139.583511,25.803719
	C147.833832,27.407856 155.459915,29.466932 161.426163,36.340874
	C163.648056,41.886517 165.454544,46.940933 167.139618,52.350040
	C166.177078,54.750996 165.335938,56.797256 164.262787,59.060455
	C161.977570,62.073021 159.924377,64.868645 157.573761,67.843742
	C154.426910,72.644424 151.577484,77.265648 148.450470,82.086823
	C145.818817,86.205505 143.464737,90.124252 140.819794,94.028595
	C140.140778,94.004791 139.752640,93.995392 139.212189,93.630463
	C139.646179,90.848183 140.232483,88.421432 140.978455,85.633240
	C144.327103,73.953720 143.675034,63.268391 136.123047,53.627701
	C124.391556,38.651546 100.460007,34.643532 82.555428,44.835003
	C79.738472,46.783569 77.267578,48.669136 74.487297,50.711807
	C70.706558,56.246243 67.235222,61.623577 63.763882,67.000908
z"/>
<path fill="#161616" opacity="1.000000" stroke="none"
	d="
M167.261017,51.995346
	C165.454544,46.940933 163.648056,41.886517 161.713715,36.490860
	C167.212585,39.440163 173.059875,42.409069 178.421753,46.085869
	C190.929031,54.662479 203.254837,63.507442 215.556519,72.379089
	C227.605652,81.068611 239.546906,89.908195 251.491577,98.741310
	C252.488327,99.478409 253.150604,100.667824 254.024750,102.021576
	C250.335938,102.957748 246.590668,103.519432 242.348846,103.716782
	C237.661423,100.496971 233.384933,97.758324 229.296661,94.762802
	C219.438431,87.539597 209.716904,80.129616 199.847900,72.921402
	C191.183456,66.592979 182.452515,60.350529 173.609787,54.275539
	C171.817368,53.044125 169.393677,52.731533 167.261017,51.995346
z"/>
<path fill="#545454" opacity="1.000000" stroke="none"
	d="
M39.080162,221.387512
	C43.706383,220.712555 48.409843,220.362396 53.616077,220.400940
	C56.167511,222.910263 57.979851,225.352158 60.321430,227.074585
	C63.652222,229.524658 67.552803,231.198196 70.893684,233.636795
	C84.530518,243.590546 97.939621,253.858414 111.642204,263.719330
	C122.387482,271.452057 133.441025,278.756439 144.357605,286.251099
	C138.216934,286.511536 132.076263,286.771973 125.470093,286.980591
	C124.101730,285.249023 123.621941,282.980225 122.230438,281.980957
	C108.663651,272.238342 94.864990,262.818817 81.290886,253.086212
	C67.440788,243.155716 53.766544,232.979919 40.029942,222.891571
	C39.653465,222.615082 39.444485,222.110519 39.080162,221.387512
z"/>
<path fill="#131313" opacity="1.000000" stroke="none"
	d="
M312.167328,137.997055
	C312.096436,135.297760 312.025574,132.598450 311.984222,129.449677
	C319.047729,133.876373 326.246033,138.534073 333.080688,143.675217
	C346.447113,153.729721 359.470947,164.242065 372.896698,174.214737
	C386.723053,184.484985 400.854767,194.344391 414.862610,204.369949
	C419.037292,207.357819 423.312561,210.210510 427.399658,213.312393
	C428.790344,214.367828 429.744843,215.997986 430.948944,217.711670
	C427.280640,217.719437 423.562012,217.381058 419.358398,216.617203
	C414.546936,212.929276 410.241943,209.637894 405.889771,206.410141
	C395.499634,198.704437 385.083832,191.033340 374.684692,183.339752
	C362.040680,173.985367 349.376129,164.658325 336.774323,155.247375
	C330.670837,150.689316 324.751648,145.883301 318.617798,141.367767
	C316.686920,139.946304 314.329529,139.104279 312.167328,137.997055
z"/>
<path fill="#424242" opacity="1.000000" stroke="none"
	d="
M238.997879,292.983765
	C240.462158,291.480225 241.926453,289.976715 244.180679,287.662048
	C239.071320,287.662048 235.455124,287.662048 231.338608,287.270874
	C228.346909,284.815399 225.996658,282.542053 223.327942,280.740417
	C220.097992,278.559937 216.478149,276.957794 213.243469,274.783417
	C208.103287,271.328125 203.142319,267.606201 198.105545,263.997070
	C198.052094,261.298645 197.998657,258.600220 197.950012,255.099640
	C198.198486,253.161499 198.442184,252.025528 199.060730,250.956177
	C204.715851,254.638992 210.044968,258.186249 215.266724,261.885040
	C228.186844,271.036957 241.025543,280.304688 254.023865,289.343384
	C254.857452,289.923035 256.772980,288.946838 258.466034,288.882812
	C267.360474,298.341064 276.268219,307.191956 289.137939,310.785950
	C290.703522,312.738556 292.083862,314.562683 293.858704,315.837646
	C301.070251,321.018341 308.359894,326.093964 315.709259,331.077759
	C319.325989,333.530334 323.135956,335.697876 326.858490,337.994385
	C325.466614,343.498169 324.074738,349.001953 322.096069,354.736328
	C313.601898,349.070801 305.719055,343.141235 297.774628,337.295380
	C294.716492,335.045105 291.493164,333.020782 288.388153,330.832397
	C275.175323,321.520142 261.875488,312.325684 248.841721,302.768677
	C245.152420,300.063477 242.257248,296.275269 238.997879,292.983765
z"/>
<path fill="#484848" opacity="1.000000" stroke="none"
	d="
M238.531738,292.929138
	C242.257248,296.275269 245.152420,300.063477 248.841721,302.768677
	C261.875488,312.325684 275.175323,321.520142 288.388153,330.832397
	C291.493164,333.020782 294.716492,335.045105 297.774628,337.295380
	C305.719055,343.141235 313.601898,349.070801 321.877533,355.033447
	C320.674469,360.543823 319.103180,365.987701 316.953186,371.670044
	C308.422913,366.610565 300.278320,361.576630 292.571259,355.943970
	C284.023499,349.696899 276.054962,342.657654 267.511719,336.403900
	C254.151932,326.624481 240.799744,316.782104 226.887238,307.832489
	C219.935776,303.360779 215.243484,295.372742 206.124054,294.192291
	C205.671341,294.133698 205.378510,292.839844 205.011246,292.121155
	C216.029358,292.372284 227.047485,292.623413 238.531738,292.929138
z"/>
<path fill="#4C4C4C" opacity="1.000000" stroke="none"
	d="
M204.545074,292.059265
	C205.378510,292.839844 205.671341,294.133698 206.124054,294.192291
	C215.243484,295.372742 219.935776,303.360779 226.887238,307.832489
	C240.799744,316.782104 254.151932,326.624481 267.511719,336.403900
	C276.054962,342.657654 284.023499,349.696899 292.571259,355.943970
	C300.278320,361.576630 308.422913,366.610565 316.737122,371.959869
	C315.830811,376.127045 314.561920,380.242859 312.761047,384.622986
	C310.776245,384.103394 309.226776,383.456512 307.887238,382.511932
	C301.815002,378.230072 295.813568,373.847992 289.764740,369.532654
	C282.027649,364.012970 274.234070,358.571930 266.530334,353.006287
	C258.485016,347.193817 250.546204,341.234100 242.508453,335.411041
	C233.590210,328.950104 224.668259,322.491547 215.644592,316.179688
	C207.654343,310.590729 199.429733,305.333954 191.499161,299.663971
	C188.394745,297.444427 185.809662,294.498535 182.988052,291.883453
	C190.018341,291.921448 197.048630,291.959442 204.545074,292.059265
z"/>
<path fill="#323232" opacity="1.000000" stroke="none"
	d="
M339.561432,277.134918
	C338.612183,282.901703 337.662964,288.668457 336.146118,294.708130
	C324.725616,286.541412 314.038727,277.876953 302.982056,269.713348
	C285.105316,256.514160 267.007385,243.613541 248.924728,230.696228
	C247.541992,229.708466 245.541229,229.585846 243.540039,228.907684
	C237.308029,222.422241 231.363693,216.090225 225.434402,209.774231
	C233.053070,208.502899 240.030853,207.338516 247.070496,206.506287
	C249.451797,212.471603 254.912003,214.564911 259.310974,217.962494
	C269.391937,225.748535 278.919800,234.256744 289.077240,241.936005
	C300.703247,250.725479 312.728485,258.990906 324.660828,267.369263
	C329.518463,270.780060 334.588196,273.888763 339.561432,277.134918
z"/>
<path fill="#2D2E2D" opacity="1.000000" stroke="none"
	d="
M339.688995,276.771149
	C334.588196,273.888763 329.518463,270.780060 324.660828,267.369263
	C312.728485,258.990906 300.703247,250.725479 289.077240,241.936005
	C278.919800,234.256744 269.391937,225.748535 259.310974,217.962494
	C254.912003,214.564911 249.451797,212.471603 247.424561,206.384766
	C250.242905,205.003296 252.769028,204.075531 255.656311,203.121292
	C259.348267,201.777496 262.679047,200.460175 266.068176,199.474121
	C266.790192,200.742310 267.272827,201.919174 268.146179,202.578308
	C275.400635,208.053223 282.747498,213.405518 290.019836,218.856995
	C292.244629,220.524750 294.390900,222.312271 296.454376,224.176422
	C299.015045,226.489716 301.220886,229.256546 303.984131,231.273941
	C314.300201,238.805527 324.746338,246.161377 335.230438,253.458466
	C337.332458,254.921478 339.814972,255.837799 342.122040,257.006195
	C341.353546,263.473267 340.585052,269.940308 339.688995,276.771149
z"/>
<path fill="#191919" opacity="1.000000" stroke="none"
	d="
M306.168976,161.274582
	C307.836761,157.017776 309.504517,152.760971 311.692017,148.240402
	C313.908356,149.251755 315.671509,150.448120 317.290588,151.815140
	C325.841949,159.035217 333.984222,166.803467 342.968170,173.433304
	C358.139435,184.629105 373.935120,194.975235 389.247620,205.985489
	C393.560974,209.086960 397.105011,213.258453 401.001923,216.939148
	C391.637115,217.639771 382.272339,218.340393 372.396454,218.642853
	C370.918762,217.160522 370.062714,215.947037 368.968719,215.011917
	C355.687286,203.659286 339.706268,195.937759 327.343414,183.207962
	C320.642914,176.308594 312.332336,170.972946 304.843994,164.615875
	C305.349640,163.291397 305.759308,162.282990 306.168976,161.274582
z"/>
<path fill="#525252" opacity="1.000000" stroke="none"
	d="
M151.036911,291.849823
	C155.369827,291.429565 159.730453,291.325012 164.575897,291.641602
	C169.040390,295.208435 172.866425,298.579895 177.049149,301.427368
	C180.311401,303.648224 184.288910,304.840637 187.479584,307.140686
	C202.751022,318.149353 217.862930,329.379364 233.031052,340.531342
	C241.709686,346.912109 250.346161,353.351257 259.077454,359.659149
	C267.251831,365.564697 275.503052,371.364868 283.763123,377.150482
	C291.860107,382.821838 300.010864,388.416382 308.138000,394.044678
	C304.201141,398.035858 299.232483,399.171600 293.431458,399.164185
	C291.766022,397.276062 290.925476,394.881531 289.236420,393.666138
	C279.711975,386.812683 269.913422,380.341309 260.348785,373.542175
	C253.601044,368.745361 247.114822,363.582489 240.443359,358.676208
	C229.653839,350.741333 218.792145,342.904633 207.989410,334.987640
	C189.308304,321.296753 170.645416,307.580963 152.001160,293.839966
	C151.532288,293.494415 151.369934,292.733002 151.036911,291.849823
z"/>
<path fill="#363736" opacity="1.000000" stroke="none"
	d="
M354.321838,332.931396
	C355.637299,325.800140 356.952728,318.668884 358.850586,311.280457
	C366.320435,315.829315 373.233490,320.599182 380.089142,325.450073
	C389.383850,332.026855 398.521423,338.832764 407.944153,345.219116
	C414.215271,349.469360 420.866486,353.158752 427.347565,357.099182
	C427.771332,364.869751 425.471832,371.932892 421.147644,378.800049
	C409.065979,370.849945 397.561920,362.769165 386.131927,354.584991
	C381.574432,351.321686 377.317780,347.626648 372.677826,344.492889
	C366.688416,340.447723 360.451935,336.768311 354.321838,332.931396
z"/>
<path fill="#3D3E3D" opacity="1.000000" stroke="none"
	d="
M354.200439,333.281982
	C360.451935,336.768311 366.688416,340.447723 372.677826,344.492889
	C377.317780,347.626648 381.574432,351.321686 386.131927,354.584991
	C397.561920,362.769165 409.065979,370.849945 420.902588,379.041931
	C417.201782,386.662689 410.832306,391.425903 402.346252,394.074249
	C390.290283,385.524963 378.924225,377.009338 367.228394,368.973755
	C362.139008,365.477081 356.372284,362.966248 350.913177,360.007660
	C351.968475,351.215973 353.023773,342.424286 354.200439,333.281982
z"/>
<path fill="#313232" opacity="1.000000" stroke="none"
	d="
M427.464111,356.768860
	C420.866486,353.158752 414.215271,349.469360 407.944153,345.219116
	C398.521423,338.832764 389.383850,332.026855 380.089142,325.450073
	C373.233490,320.599182 366.320435,315.829315 359.058350,310.958801
	C360.178284,303.771057 361.672852,296.647858 363.708862,289.255951
	C369.249908,292.879974 374.249542,296.772705 379.249176,300.665436
	C378.070831,301.370636 376.892456,302.075806 375.083832,303.158173
	C407.494354,307.192993 423.155914,326.364227 427.464111,356.768860
z"/>
<path fill="#4F4F4F" opacity="1.000000" stroke="none"
	d="
M308.427216,393.869934
	C300.010864,388.416382 291.860107,382.821838 283.763123,377.150482
	C275.503052,371.364868 267.251831,365.564697 259.077454,359.659149
	C250.346161,353.351257 241.709686,346.912109 233.031052,340.531342
	C217.862930,329.379364 202.751022,318.149353 187.479584,307.140686
	C184.288910,304.840637 180.311401,303.648224 177.049149,301.427368
	C172.866425,298.579895 169.040390,295.208435 165.033768,291.723358
	C170.693893,291.517059 176.380966,291.650146 182.528046,291.833344
	C185.809662,294.498535 188.394745,297.444427 191.499161,299.663971
	C199.429733,305.333954 207.654343,310.590729 215.644592,316.179688
	C224.668259,322.491547 233.590210,328.950104 242.508453,335.411041
	C250.546204,341.234100 258.485016,347.193817 266.530334,353.006287
	C274.234070,358.571930 282.027649,364.012970 289.764740,369.532654
	C295.813568,373.847992 301.815002,378.230072 307.887238,382.511932
	C309.226776,383.456512 310.776245,384.103394 312.574646,384.940918
	C311.518951,387.894745 310.117706,390.794983 308.427216,393.869934
z"/>
<path fill="#1F1F1F" opacity="1.000000" stroke="none"
	d="
M304.748047,164.931915
	C312.332336,170.972946 320.642914,176.308594 327.343414,183.207962
	C339.706268,195.937759 355.687286,203.659286 368.968719,215.011917
	C370.062714,215.947037 370.918762,217.160522 371.944275,218.582062
	C360.314606,218.922485 348.626038,218.925537 336.455200,218.503113
	C335.456940,217.280472 335.107269,216.270432 334.400116,215.718063
	C324.005249,207.598282 313.671417,199.393021 303.079102,191.537064
	C298.740814,188.319504 294.707458,185.110626 293.074188,179.516846
	C297.065887,174.461853 300.906952,169.696884 304.748047,164.931915
z"/>
<path fill="#292A2A" opacity="1.000000" stroke="none"
	d="
M342.267639,256.614838
	C339.814972,255.837799 337.332458,254.921478 335.230438,253.458466
	C324.746338,246.161377 314.300201,238.805527 303.984131,231.273941
	C301.220886,229.256546 299.015045,226.489716 296.454376,224.176422
	C294.390900,222.312271 292.244629,220.524750 290.019836,218.856995
	C282.747498,213.405518 275.400635,208.053223 268.146179,202.578308
	C267.272827,201.919174 266.790192,200.742310 266.348877,199.262360
	C270.388641,196.514709 274.206024,194.310104 278.100586,192.426605
	C281.591309,195.825867 284.872711,199.068588 288.450592,201.942184
	C293.355469,205.881561 298.575531,209.429794 303.456177,213.397049
	C304.700714,214.408661 305.174805,216.368179 306.002869,217.892181
	C303.834412,218.963669 301.665924,220.035156 299.497467,221.106644
	C299.705231,222.017151 299.912994,222.927643 300.120758,223.838150
	C308.975250,223.838150 317.831757,223.717651 326.683777,223.865784
	C340.697632,224.100296 344.278015,227.818787 343.873047,241.892639
	C343.735291,246.679611 342.919312,251.447098 342.267639,256.614838
z"/>
<path fill="#151515" opacity="1.000000" stroke="none"
	d="
M401.463654,217.021729
	C397.105011,213.258453 393.560974,209.086960 389.247620,205.985489
	C373.935120,194.975235 358.139435,184.629105 342.968170,173.433304
	C333.984222,166.803467 325.841949,159.035217 317.290588,151.815140
	C315.671509,150.448120 313.908356,149.251755 311.826904,147.913132
	C311.641083,144.863770 311.840027,141.877914 312.103149,138.444550
	C314.329529,139.104279 316.686920,139.946304 318.617798,141.367767
	C324.751648,145.883301 330.670837,150.689316 336.774323,155.247375
	C349.376129,164.658325 362.040680,173.985367 374.684692,183.339752
	C385.083832,191.033340 395.499634,198.704437 405.889771,206.410141
	C410.241943,209.637894 414.546936,212.929276 418.937256,216.522324
	C413.309235,216.936707 407.617310,217.020493 401.463654,217.021729
z"/>
<path fill="#363838" opacity="1.000000" stroke="none"
	d="
M243.827728,229.061096
	C245.541229,229.585846 247.541992,229.708466 248.924728,230.696228
	C267.007385,243.613541 285.105316,256.514160 302.982056,269.713348
	C314.038727,277.876953 324.725616,286.541412 335.944641,295.051483
	C335.091217,301.555084 333.871704,307.988220 332.069763,314.691223
	C325.986145,312.167206 320.872192,308.933167 318.305176,302.822845
	C321.793610,302.680084 325.008698,302.997070 328.212097,302.905670
	C329.428467,302.870972 330.618042,301.896637 331.819824,301.350586
	C330.983276,300.469849 330.304779,299.257812 329.281036,298.769470
	C325.990143,297.199677 322.174408,296.455261 319.274414,294.390625
	C309.033264,287.099579 298.540131,280.011444 289.155853,271.701965
	C273.632172,257.956238 258.895844,243.321350 243.827728,229.061096
z"/>
<path fill="#1B1B1B" opacity="1.000000" stroke="none"
	d="
M380.171997,234.675964
	C390.148529,221.875046 405.215668,219.335709 416.138336,228.996811
	C422.490295,234.615097 424.982880,241.893677 423.306610,250.456726
	C422.615570,253.986893 422.374451,257.605133 421.423645,261.564209
	C418.698212,260.873352 416.289520,260.073029 414.288483,258.684998
	C402.862640,250.759415 391.533783,242.693924 380.171997,234.675964
z"/>
<path fill="#454545" opacity="1.000000" stroke="none"
	d="
M350.784058,360.402039
	C356.372284,362.966248 362.139008,365.477081 367.228394,368.973755
	C378.924225,377.009338 390.290283,385.524963 401.986084,394.166016
	C391.142395,398.412994 379.934448,398.408142 368.812256,395.242859
	C356.010437,391.599609 350.030579,383.204315 350.096771,369.752838
	C350.111450,366.766510 350.460083,363.781860 350.784058,360.402039
z"/>
<path fill="#212221" opacity="1.000000" stroke="none"
	d="
M379.934021,234.881622
	C391.533783,242.693924 402.862640,250.759415 414.288483,258.684998
	C416.289520,260.073029 418.698212,260.873352 421.266907,261.960419
	C418.440125,267.887421 415.265045,273.799133 411.627380,279.523041
	C410.024445,278.174133 409.020233,276.825745 407.721863,275.881989
	C398.636566,269.278015 389.526398,262.706635 380.339142,256.245728
	C377.989227,254.593155 375.334106,253.374557 372.819214,251.956573
	C375.111511,246.333481 377.403778,240.710373 379.934021,234.881622
z"/>
<path fill="#262626" opacity="1.000000" stroke="none"
	d="
M306.467285,217.957016
	C305.174805,216.368179 304.700714,214.408661 303.456177,213.397049
	C298.575531,209.429794 293.355469,205.881561 288.450592,201.942184
	C284.872711,199.068588 281.591309,195.825867 278.306732,192.160278
	C283.264984,187.650848 288.094269,183.728867 292.923553,179.806885
	C294.707458,185.110626 298.740814,188.319504 303.079102,191.537064
	C313.671417,199.393021 324.005249,207.598282 334.400116,215.718063
	C335.107269,216.270432 335.456940,217.280472 335.994049,218.419952
	C326.320679,218.515457 316.626190,218.268661 306.467285,217.957016
z"/>
<path fill="#262626" opacity="1.000000" stroke="none"
	d="
M372.578430,252.233871
	C375.334106,253.374557 377.989227,254.593155 380.339142,256.245728
	C389.526398,262.706635 398.636566,269.278015 407.721863,275.881989
	C409.020233,276.825745 410.024445,278.174133 411.329041,279.734131
	C407.613770,283.860352 403.734253,287.587708 399.390259,291.123779
	C398.071106,289.935760 397.370605,288.727142 396.337585,287.975433
	C387.048889,281.216003 377.701874,274.536774 368.371948,267.834015
	C369.693848,262.726410 371.015747,257.618774 372.578430,252.233871
z"/>
<path fill="#3F3F3F" opacity="1.000000" stroke="none"
	d="
M318.027161,303.119934
	C320.872192,308.933167 325.986145,312.167206 331.853333,315.025787
	C330.526398,322.482544 328.833496,329.874634 326.999512,337.630554
	C323.135956,335.697876 319.325989,333.530334 315.709259,331.077759
	C308.359894,326.093964 301.070251,321.018341 293.858704,315.837646
	C292.083862,314.562683 290.703522,312.738556 289.585632,310.881165
	C300.511047,312.407135 309.541077,308.782104 318.027161,303.119934
z"/>
<path fill="#2B2C2C" opacity="1.000000" stroke="none"
	d="
M368.227081,268.163086
	C377.701874,274.536774 387.048889,281.216003 396.337585,287.975433
	C397.370605,288.727142 398.071106,289.935760 399.073608,291.288269
	C392.824921,294.614014 386.428436,297.584045 379.640564,300.609741
	C374.249542,296.772705 369.249908,292.879974 363.863953,288.923981
	C365.012482,282.071198 366.547333,275.281677 368.227081,268.163086
z"/>
<path fill="#52A6B3" opacity="1.000000" stroke="none"
	d="
M198.685883,250.889557
	C198.442184,252.025528 198.198486,253.161499 197.894745,254.653091
	C193.089218,252.037537 188.346802,249.061401 183.597290,246.096680
	C179.325012,243.429840 175.044907,240.775482 170.399384,237.667145
	C170.418365,235.155365 170.806229,233.092087 171.382751,230.709839
	C173.023117,224.258682 174.474854,218.126511 176.093994,211.633728
	C177.433136,205.844116 178.604858,200.415100 179.883148,194.578384
	C180.745178,190.786652 181.500641,187.402618 182.609467,184.030258
	C184.723587,184.873642 186.601837,185.523163 188.224442,186.569214
	C194.553726,190.649521 200.802048,194.855453 207.096802,199.412476
	C207.062119,200.869949 207.011124,201.929565 206.734253,203.296448
	C204.832932,212.664963 203.157471,221.726196 201.338608,231.149979
	C200.358749,237.971527 199.522308,244.430542 198.685883,250.889557
z"/>
<path fill="#4A4A4A" opacity="1.000000" stroke="none"
	d="
M82.819328,213.477982
	C88.071739,211.154785 93.324150,208.831573 99.247009,206.701263
	C109.458908,213.706711 118.952271,220.587875 128.554794,227.313187
	C138.941406,234.587646 149.387726,241.779465 159.916550,248.845612
	C161.624115,249.991608 163.894653,250.298721 165.904968,250.993591
	C164.277924,256.410522 162.650864,261.827484 160.554352,267.617310
	C156.680222,266.408691 152.984299,265.254822 149.922684,263.169678
	C138.362457,255.296432 127.035194,247.082138 115.568626,239.070084
	C106.100403,232.454315 96.481766,226.050415 87.114693,219.296188
	C85.252625,217.953522 84.229378,215.447525 82.819328,213.477982
z"/>
<path fill="#454545" opacity="1.000000" stroke="none"
	d="
M165.990463,250.619888
	C163.894653,250.298721 161.624115,249.991608 159.916550,248.845612
	C149.387726,241.779465 138.941406,234.587646 128.554794,227.313187
	C118.952271,220.587875 109.458908,213.706711 99.586548,206.639252
	C105.271751,202.632187 111.287895,198.880020 117.720993,195.373856
	C118.298706,195.907623 118.387100,196.300446 118.630562,196.468201
	C134.162277,207.169052 149.683472,217.885651 165.282211,228.488113
	C167.023865,229.671890 169.212677,230.197800 171.194107,231.028809
	C170.806229,233.092087 170.418365,235.155365 170.042984,237.611542
	C168.728973,242.085022 167.402466,246.165604 165.990463,250.619888
z"/>
<path fill="#4E4E4E" opacity="1.000000" stroke="none"
	d="
M82.440567,213.565094
	C84.229378,215.447525 85.252625,217.953522 87.114693,219.296188
	C96.481766,226.050415 106.100403,232.454315 115.568626,239.070084
	C127.035194,247.082138 138.362457,255.296432 149.922684,263.169678
	C152.984299,265.254822 156.680222,266.408691 160.460754,267.990540
	C159.649445,271.131866 158.462265,274.272888 156.710739,277.692780
	C154.911484,277.529877 153.541183,277.300079 152.463593,276.611908
	C145.411957,272.108521 138.254761,267.742767 131.448532,262.888336
	C115.444633,251.473816 99.578423,239.864594 83.744423,228.214630
	C79.014435,224.734543 74.575577,220.858749 70.003342,217.164246
	C74.022827,215.993561 78.042320,214.822876 82.440567,213.565094
z"/>
<path fill="#525252" opacity="1.000000" stroke="none"
	d="
M144.716858,286.238831
	C133.441025,278.756439 122.387482,271.452057 111.642204,263.719330
	C97.939621,253.858414 84.530518,243.590546 70.893684,233.636795
	C67.552803,231.198196 63.652222,229.524658 60.321430,227.074585
	C57.979851,225.352158 56.167511,222.910263 54.060654,220.457397
	C57.018139,219.658249 60.033825,219.191330 63.503601,219.077698
	C64.685158,220.642349 65.136543,222.221954 66.183640,223.007019
	C74.778191,229.450836 83.358757,235.926773 92.182671,242.048279
	C107.896034,252.949280 123.844162,263.512177 139.542633,274.434174
	C143.700684,277.327057 147.306015,281.014435 151.165131,284.337006
	C149.135452,284.966858 147.105774,285.596710 144.716858,286.238831
z"/>
<path fill="#4F4F4F" opacity="1.000000" stroke="none"
	d="
M151.478516,284.204651
	C147.306015,281.014435 143.700684,277.327057 139.542633,274.434174
	C123.844162,263.512177 107.896034,252.949280 92.182671,242.048279
	C83.358757,235.926773 74.778191,229.450836 66.183640,223.007019
	C65.136543,222.221954 64.685158,220.642349 63.924187,219.041473
	C65.688644,218.159943 67.486603,217.667892 69.643951,217.170044
	C74.575577,220.858749 79.014435,224.734543 83.744423,228.214630
	C99.578423,239.864594 115.444633,251.473816 131.448532,262.888336
	C138.254761,267.742767 145.411957,272.108521 152.463593,276.611908
	C153.541183,277.300079 154.911484,277.529877 156.505920,277.984528
	C155.174255,280.022339 153.483078,282.047333 151.478516,284.204651
z"/>
<path fill="#484848" opacity="1.000000" stroke="none"
	d="
M198.042389,264.436432
	C203.142319,267.606201 208.103287,271.328125 213.243469,274.783417
	C216.478149,276.957794 220.097992,278.559937 223.327942,280.740417
	C225.996658,282.542053 228.346909,284.815399 230.926025,287.172546
	C224.765396,287.165588 218.431335,287.409943 212.288086,286.442627
	C202.262009,284.863861 197.893616,277.819885 198.042389,264.436432
z"/>
<path fill="#489BA8" opacity="1.000000" stroke="none"
	d="
M236.875061,105.473518
	C238.598083,107.331001 240.321106,109.188492 242.112961,111.437828
	C240.183701,113.431267 238.185593,115.032860 235.924240,116.791794
	C232.986877,121.241508 230.312744,125.533882 227.406525,130.077652
	C224.740677,135.886963 222.306946,141.444901 219.516663,146.989609
	C217.889206,146.292404 216.567413,145.687790 215.355591,144.911530
	C207.636307,139.966843 199.941254,134.984314 192.222458,129.628021
	C194.018036,119.101669 188.817245,112.414360 178.659698,111.905060
	C172.554047,111.598915 166.445160,111.334999 160.334671,111.155716
	C156.625229,111.046890 152.909958,111.135658 148.484024,111.135658
	C149.377075,109.144058 149.823685,108.148071 150.639145,106.993484
	C152.939133,106.572906 154.870865,106.083870 156.801315,106.088821
	C164.530975,106.108627 172.260223,106.281738 180.445724,106.526688
	C191.268097,106.751099 201.634369,106.846977 212.463928,107.016235
	C218.946533,106.702866 224.965866,106.316124 231.406845,105.969513
	C233.510696,105.830940 235.192871,105.652229 236.875061,105.473518
z"/>
<path fill="#499CA9" opacity="1.000000" stroke="none"
	d="
M293.074188,179.516846
	C288.094269,183.728867 283.264984,187.650848 278.229553,191.839172
	C274.206024,194.310104 270.388641,196.514709 266.290558,198.931076
	C262.679047,200.460175 259.348267,201.777496 255.368256,202.919754
	C252.834763,201.170959 250.950470,199.597229 249.216644,197.727509
	C253.826019,191.944870 258.284943,186.458221 262.984924,180.706207
	C266.151489,174.294144 269.076965,168.147430 272.243896,161.735413
	C273.947021,156.310181 275.408722,151.150284 276.966156,145.681549
	C277.339417,144.572021 277.616913,143.771317 277.894409,142.970612
	C280.826569,144.267731 284.014923,145.181763 286.640381,146.937515
	C293.163300,151.299667 299.429474,156.045761 305.983856,160.956116
	C305.759308,162.282990 305.349640,163.291397 304.843994,164.615860
	C300.906952,169.696884 297.065887,174.461853 293.074188,179.516846
z"/>
<path fill="#191919" opacity="1.000000" stroke="none"
	d="
M277.854218,142.524124
	C277.616913,143.771317 277.339417,144.572021 276.621887,145.625595
	C270.904572,142.536835 265.395569,139.505997 260.402283,135.783447
	C252.155518,129.635391 244.241638,123.040840 236.187469,116.634453
	C238.185593,115.032860 240.183701,113.431267 242.469604,111.610970
	C247.826859,110.836395 252.959381,109.490662 257.952576,109.889496
	C268.268982,110.713531 274.743408,117.608192 276.081970,127.913475
	C276.694641,132.630280 277.238800,137.355972 277.854218,142.524124
z"/>
<path fill="#181818" opacity="1.000000" stroke="none"
	d="
M237.177032,105.334724
	C235.192871,105.652229 233.510696,105.830940 231.351166,105.627014
	C229.448746,103.952164 228.180420,102.400955 226.565018,101.423134
	C223.468430,99.548721 219.940002,98.332039 217.004333,96.257271
	C205.641586,88.226700 194.474106,79.920494 183.168091,71.808693
	C177.011948,67.391800 170.723541,63.159222 164.494781,58.843517
	C165.335938,56.797256 166.177078,54.750996 167.139618,52.350044
	C169.393677,52.731533 171.817368,53.044125 173.609787,54.275539
	C182.452515,60.350529 191.183456,66.592979 199.847900,72.921402
	C209.716904,80.129616 219.438431,87.539597 229.296661,94.762802
	C233.384933,97.758324 237.661423,100.496971 241.926483,103.686890
	C240.493439,104.412857 238.986221,104.804390 237.177032,105.334724
z"/>
<path fill="#2A2B2B" opacity="1.000000" stroke="none"
	d="
M150.270294,107.152077
	C149.823685,108.148071 149.377075,109.144058 148.484024,111.135658
	C152.909958,111.135658 156.625229,111.046890 160.334671,111.155716
	C166.445160,111.334999 172.554047,111.598915 178.659698,111.905060
	C188.817245,112.414360 194.018036,119.101669 192.121674,130.029510
	C190.623566,138.208282 189.210449,145.599304 187.450928,152.927200
	C183.652496,150.988876 179.964951,149.442001 176.797699,147.169876
	C170.284561,142.497467 164.248047,137.104935 156.234558,134.991730
	C156.174454,134.546539 156.114334,134.101334 156.040894,132.925522
	C153.890320,127.501213 152.678680,121.998947 149.428070,118.277863
	C142.082336,109.869034 131.587860,108.406525 120.999886,108.011192
	C118.602562,107.716354 116.205231,107.421516 113.347710,106.684242
	C111.353882,104.549728 110.046753,102.552803 108.248581,101.216774
	C98.984550,94.333649 89.673943,87.506607 80.218246,80.890602
	C74.707314,77.034691 68.893677,73.611404 63.216240,69.993469
	C63.399120,69.202095 63.581997,68.410728 63.764378,67.310135
	C67.235222,61.623577 70.706558,56.246243 74.650299,51.040642
	C76.775734,52.824188 78.262367,54.664371 80.109261,56.010174
	C90.801834,63.801723 101.596809,71.452553 112.320175,79.202141
	C117.148560,82.691513 121.878006,86.317436 126.676079,89.849159
	C134.530609,95.630653 142.404541,101.385811 150.270294,107.152077
z"/>
<path fill="#3F3F3F" opacity="1.000000" stroke="none"
	d="
M171.382751,230.709839
	C169.212677,230.197800 167.023865,229.671890 165.282211,228.488113
	C149.683472,217.885651 134.162277,207.169052 118.630562,196.468201
	C118.387100,196.300446 118.298706,195.907623 118.060028,195.282959
	C122.197403,191.243332 126.412682,187.540588 131.247787,183.867584
	C136.379456,187.218842 140.720169,190.811447 145.445602,193.794647
	C151.624969,197.695694 158.145218,201.052551 164.447678,204.764328
	C168.342422,207.058136 172.104797,209.576675 175.926575,211.994324
	C174.474854,218.126511 173.023117,224.258682 171.382751,230.709839
z"/>
<path fill="#313131" opacity="1.000000" stroke="none"
	d="
M63.063957,70.370148
	C68.893677,73.611404 74.707314,77.034691 80.218246,80.890602
	C89.673943,87.506607 98.984550,94.333649 108.248581,101.216774
	C110.046753,102.552803 111.353882,104.549728 112.945595,106.576859
	C102.314697,105.668198 91.344406,105.540825 80.998955,102.933846
	C62.937778,98.382553 58.207092,88.940880 63.063957,70.370148
z"/>
<path fill="#353636" opacity="1.000000" stroke="none"
	d="
M182.256134,184.018585
	C181.500641,187.402618 180.745178,190.786652 179.525848,194.565948
	C177.093094,194.130127 174.920395,193.595612 173.194901,192.410156
	C168.709564,189.328613 164.544281,185.775650 160.018661,182.759918
	C155.510071,179.755539 150.734833,177.147705 146.042038,174.425461
	C144.485077,173.522247 142.821167,172.803421 141.206146,172.000305
	C144.562256,166.120316 147.918350,160.240341 151.861206,154.283478
	C161.109940,160.098694 169.736679,166.043945 178.466309,171.834015
	C180.042648,172.879562 182.041855,173.287582 183.865875,174.385010
	C183.342651,177.859573 182.799393,180.939072 182.256134,184.018585
z"/>
<path fill="#393A3B" opacity="1.000000" stroke="none"
	d="
M140.926361,172.200668
	C142.821167,172.803421 144.485077,173.522247 146.042038,174.425461
	C150.734833,177.147705 155.510071,179.755539 160.018661,182.759918
	C164.544281,185.775650 168.709564,189.328613 173.194901,192.410156
	C174.920395,193.595612 177.093094,194.130127 179.419296,194.973663
	C178.604858,200.415100 177.433136,205.844116 176.093994,211.633728
	C172.104797,209.576675 168.342422,207.058136 164.447678,204.764328
	C158.145218,201.052551 151.624969,197.695694 145.445602,193.794647
	C140.720169,190.811447 136.379456,187.218842 131.512131,183.694809
	C134.319946,179.795212 137.483246,176.098114 140.926361,172.200668
z"/>
<path fill="#303030" opacity="1.000000" stroke="none"
	d="
M183.845825,173.989944
	C182.041855,173.287582 180.042648,172.879562 178.466309,171.834015
	C169.736679,166.043945 161.109940,160.098694 152.120438,154.058929
	C153.207352,147.882004 154.621811,141.852737 156.135406,135.407593
	C164.248047,137.104935 170.284561,142.497467 176.797699,147.169876
	C179.964951,149.442001 183.652496,150.988876 187.482162,153.326599
	C186.521835,160.522736 185.183838,167.256332 183.845825,173.989944
z"/>
<path fill="#E9E9E9" opacity="1.000000" stroke="none"
	d="
M121.077164,108.344093
	C131.587860,108.406525 142.082336,109.869034 149.428070,118.277863
	C152.678680,121.998947 153.890320,127.501213 155.956787,132.598267
	C154.613708,132.753555 153.110794,132.857651 152.106628,132.200104
	C145.705933,128.008865 139.259659,123.857353 133.141403,119.274841
	C128.886688,116.088104 125.132324,112.233330 121.077164,108.344093
z"/>
<path fill="#222222" opacity="1.000000" stroke="none"
	d="
M82.901489,44.772003
	C100.460007,34.643532 124.391556,38.651546 136.123047,53.627701
	C143.675034,63.268391 144.327103,73.953720 140.640778,85.573914
	C139.382843,85.550278 138.534439,85.348320 137.874695,84.880379
	C125.890587,76.380241 113.877617,67.919212 101.983543,59.294369
	C95.514313,54.603279 89.255310,49.622257 82.901489,44.772003
z"/>
<path fill="#252626" opacity="1.000000" stroke="none"
	d="
M82.555428,44.835003
	C89.255310,49.622257 95.514313,54.603279 101.983543,59.294369
	C113.877617,67.919212 125.890587,76.380241 137.874695,84.880379
	C138.534439,85.348320 139.382843,85.550278 140.481110,85.935364
	C140.232483,88.421432 139.646179,90.848183 139.270172,93.895859
	C140.023880,94.358856 140.567261,94.200928 141.110657,94.042999
	C143.464737,90.124252 145.818817,86.205505 148.769470,82.244553
	C156.596298,87.365738 163.943848,92.375381 171.004913,97.760643
	C174.286743,100.263596 177.012039,103.496269 179.989624,106.398148
	C172.260223,106.281738 164.530975,106.108627 156.801315,106.088821
	C154.870865,106.083870 152.939133,106.572906 150.639145,106.993484
	C142.404541,101.385811 134.530609,95.630653 126.676079,89.849159
	C121.878006,86.317436 117.148560,82.691513 112.320175,79.202141
	C101.596809,71.452553 90.801834,63.801723 80.109261,56.010174
	C78.262367,54.664371 76.775734,52.824188 74.959686,50.883533
	C77.267578,48.669136 79.738472,46.783569 82.555428,44.835003
z"/>
<path fill="#1B1B1B" opacity="1.000000" stroke="none"
	d="
M164.262787,59.060455
	C170.723541,63.159222 177.011948,67.391800 183.168091,71.808693
	C194.474106,79.920494 205.641586,88.226700 217.004333,96.257271
	C219.940002,98.332039 223.468430,99.548721 226.565018,101.423134
	C228.180420,102.400955 229.448746,103.952164 230.929504,105.586884
	C224.965866,106.316124 218.946533,106.702866 212.403030,106.674835
	C211.400696,105.607269 211.057281,104.751831 210.424728,104.331223
	C193.747849,93.242050 177.024796,82.222168 160.376190,71.090904
	C159.271378,70.352219 158.693909,68.824821 157.871170,67.664276
	C159.924377,64.868645 161.977570,62.073021 164.262787,59.060455
z"/>
<path fill="#1F1F1F" opacity="1.000000" stroke="none"
	d="
M157.573761,67.843750
	C158.693909,68.824821 159.271378,70.352219 160.376190,71.090904
	C177.024796,82.222168 193.747849,93.242050 210.424728,104.331223
	C211.057281,104.751831 211.400696,105.607269 211.939743,106.601463
	C201.634369,106.846977 191.268097,106.751099 180.445724,106.526688
	C177.012039,103.496269 174.286743,100.263596 171.004913,97.760643
	C163.943848,92.375381 156.596298,87.365738 149.047028,82.044609
	C151.577484,77.265648 154.426910,72.644424 157.573761,67.843750
z"/>
<path fill="#E5E5E5" opacity="1.000000" stroke="none"
	d="
M140.819794,94.028595
	C140.567261,94.200928 140.023880,94.358856 139.422485,94.251389
	C139.752640,93.995392 140.140778,94.004791 140.819794,94.028595
z"/>
<path fill="#51A4B1" opacity="1.000000" stroke="none"
	d="
M249.066177,198.023514
	C250.950470,199.597229 252.834763,201.170959 255.007111,202.946213
	C252.769028,204.075531 250.242905,205.003296 247.362732,206.052597
	C240.030853,207.338516 233.053070,208.502899 225.434402,209.774231
	C231.363693,216.090225 237.308029,222.422241 243.540039,228.907684
	C258.895844,243.321350 273.632172,257.956238 289.155853,271.701965
	C298.540131,280.011444 309.033264,287.099579 319.274414,294.390625
	C322.174408,296.455261 325.990143,297.199677 329.281036,298.769470
	C330.304779,299.257812 330.983276,300.469849 331.819824,301.350586
	C330.618042,301.896637 329.428467,302.870972 328.212097,302.905670
	C325.008698,302.997070 321.793610,302.680084 318.305176,302.822845
	C309.541077,308.782104 300.511047,312.407135 289.581726,310.500244
	C276.268219,307.191956 267.360474,298.341064 258.326965,288.584839
	C256.921448,286.827179 255.777863,285.647888 254.975433,284.269958
	C249.088745,274.161011 243.270355,264.012299 237.312439,253.520111
	C234.549286,246.386948 232.139206,239.505966 229.201691,232.858032
	C225.190674,223.780685 220.778076,214.880768 216.353241,205.597580
	C214.715027,203.543518 213.261200,201.796692 211.880219,200.137375
	C216.588547,193.981522 216.530075,194.022964 220.423386,199.515778
	C221.352295,200.826309 222.661316,202.028275 224.056564,202.820297
	C231.062317,206.797073 240.677002,204.868896 248.308060,198.126770
	C248.728714,198.065811 248.897446,198.044662 249.066177,198.023514
z"/>
<path fill="#3F3F3F" opacity="1.000000" stroke="none"
	d="
M237.430420,253.876144
	C243.270355,264.012299 249.088745,274.161011 254.975433,284.269958
	C255.777863,285.647888 256.921448,286.827179 258.046143,288.396423
	C256.772980,288.946838 254.857452,289.923035 254.023865,289.343384
	C241.025543,280.304688 228.186844,271.036957 215.266724,261.885040
	C210.044968,258.186249 204.715851,254.638992 199.060730,250.956177
	C199.522308,244.430542 200.358749,237.971527 201.685455,231.310364
	C207.948380,235.737030 213.416153,240.833420 219.584259,244.855865
	C225.133713,248.474869 231.451508,250.915680 237.430420,253.876144
z"/>
<path fill="#4DA0AD" opacity="1.000000" stroke="none"
	d="
M183.865875,174.385010
	C185.183838,167.256332 186.521835,160.522736 187.828583,153.389740
	C189.210449,145.599304 190.623566,138.208282 192.137451,130.415756
	C199.941254,134.984314 207.636307,139.966843 215.355591,144.911530
	C216.567413,145.687790 217.889206,146.292404 219.536987,147.317749
	C219.902344,148.096970 219.890839,148.534821 219.643982,149.246872
	C217.440872,156.969696 215.473129,164.418335 213.346878,172.194275
	C211.152405,181.352585 209.116440,190.183624 207.080475,199.014648
	C200.802048,194.855453 194.553726,190.649521 188.224442,186.569214
	C186.601837,185.523163 184.723587,184.873642 182.609467,184.030258
	C182.799393,180.939072 183.342651,177.859573 183.865875,174.385010
z"/>
<path fill="#393A3B" opacity="1.000000" stroke="none"
	d="
M237.312439,253.520111
	C231.451508,250.915680 225.133713,248.474869 219.584259,244.855865
	C213.416153,240.833420 207.948380,235.737030 201.828857,230.947815
	C203.157471,221.726196 204.832932,212.664963 207.112610,203.311462
	C210.657089,203.981064 213.597351,204.942932 216.537628,205.904800
	C220.778076,214.880768 225.190674,223.780685 229.201691,232.858032
	C232.139206,239.505966 234.549286,246.386948 237.312439,253.520111
z"/>
<path fill="#303030" opacity="1.000000" stroke="none"
	d="
M216.353241,205.597580
	C213.597351,204.942932 210.657089,203.981064 207.338470,203.004196
	C207.011124,201.929565 207.062119,200.869949 207.096802,199.412476
	C209.116440,190.183624 211.152405,181.352585 213.735962,172.258942
	C224.278519,179.253036 234.306915,186.464600 244.232956,193.814423
	C245.749878,194.937607 246.793564,196.699905 248.056122,198.166611
	C240.677002,204.868896 231.062317,206.797073 224.056564,202.820297
	C222.661316,202.028275 221.352295,200.826309 220.423386,199.515778
	C216.530075,194.022964 216.588547,193.981522 211.880219,200.137375
	C213.261200,201.796692 214.715027,203.543518 216.353241,205.597580
z"/>
<path fill="#232424" opacity="1.000000" stroke="none"
	d="
M219.879349,148.972687
	C219.890839,148.534821 219.902344,148.096970 219.893524,147.330963
	C222.306946,141.444901 224.740677,135.886963 227.705017,130.284637
	C231.622543,133.570999 234.753494,137.224258 238.453293,140.160797
	C244.824753,145.217804 251.403671,150.049622 258.180206,154.547012
	C262.523499,157.429565 267.377411,159.542694 272.002441,162.000732
	C269.076965,168.147430 266.151489,174.294144 262.652924,180.647430
	C259.567627,178.831406 257.119141,176.722900 254.530670,174.803131
	C248.075668,170.015701 241.524536,165.357819 235.074173,160.564255
	C229.961426,156.764740 224.940842,152.841171 219.879349,148.972687
z"/>
<path fill="#1F1F1F" opacity="1.000000" stroke="none"
	d="
M272.243896,161.735413
	C267.377411,159.542694 262.523499,157.429565 258.180206,154.547012
	C251.403671,150.049622 244.824753,145.217804 238.453293,140.160797
	C234.753494,137.224258 231.622543,133.570999 227.937119,130.033264
	C230.312744,125.533882 232.986877,121.241508 235.924240,116.791794
	C244.241638,123.040840 252.155518,129.635391 260.402283,135.783447
	C265.395569,139.505997 270.904572,142.536835 276.526123,145.934418
	C275.408722,151.150284 273.947021,156.310181 272.243896,161.735413
z"/>
<path fill="#292A2A" opacity="1.000000" stroke="none"
	d="
M219.643982,149.246872
	C224.940842,152.841171 229.961426,156.764740 235.074173,160.564255
	C241.524536,165.357819 248.075668,170.015701 254.530670,174.803131
	C257.119141,176.722900 259.567627,178.831406 262.411835,180.912781
	C258.284943,186.458221 253.826019,191.944870 249.216644,197.727509
	C248.897446,198.044662 248.728714,198.065811 248.308060,198.126770
	C246.793564,196.699905 245.749878,194.937607 244.232956,193.814423
	C234.306915,186.464600 224.278519,179.253036 213.894470,171.931641
	C215.473129,164.418335 217.440872,156.969696 219.643982,149.246872
z"/>
</svg>
